<mxfile host="65bd71144e">
    <diagram id="nWrvBY4X40HoykN5E5za" name="Page-1">
        <mxGraphModel dx="1086" dy="743" grid="1" gridSize="10" guides="1" tooltips="1" connect="1" arrows="1" fold="1" page="1" pageScale="1" pageWidth="827" pageHeight="1169" math="0" shadow="0">
            <root>
                <mxCell id="0"/>
                <mxCell id="1" parent="0"/>
                <mxCell id="2" value="http://ics2o.mths.ca" style="swimlane;whiteSpace=wrap;html=1;" vertex="1" parent="1">
                    <mxGeometry x="25" y="20" width="790" height="510" as="geometry"/>
                </mxCell>
                <mxCell id="9" value="&lt;font style=&quot;font-size: 28px;&quot;&gt;&lt;b&gt;Random Card Generator&lt;/b&gt;&lt;/font&gt;" style="rounded=0;whiteSpace=wrap;html=1;fillColor=#fad7ac;strokeColor=#b46504;" vertex="1" parent="2">
                    <mxGeometry x="2" y="20" width="788" height="60" as="geometry"/>
                </mxCell>
                <mxCell id="12" value="" style="rounded=1;whiteSpace=wrap;html=1;fontSize=28;" vertex="1" parent="2">
                    <mxGeometry x="82" y="110" width="58" height="30" as="geometry"/>
                </mxCell>
                <mxCell id="11" value="&lt;font style=&quot;font-size: 14px;&quot;&gt;Draw&amp;nbsp;&lt;/font&gt;" style="text;html=1;align=center;verticalAlign=middle;resizable=0;points=[];autosize=1;strokeColor=none;fillColor=none;fontSize=28;" vertex="1" parent="2">
                    <mxGeometry x="22" y="100" width="60" height="50" as="geometry"/>
                </mxCell>
                <mxCell id="13" value="&lt;font style=&quot;font-size: 14px;&quot;&gt;cards&lt;/font&gt;" style="text;html=1;align=center;verticalAlign=middle;resizable=0;points=[];autosize=1;strokeColor=none;fillColor=none;fontSize=28;" vertex="1" parent="2">
                    <mxGeometry x="145" y="100" width="60" height="50" as="geometry"/>
                </mxCell>
                <mxCell id="15" value="" style="rounded=1;whiteSpace=wrap;html=1;fontSize=14;" vertex="1" parent="2">
                    <mxGeometry x="72" y="180" width="120" height="20" as="geometry"/>
                </mxCell>
                <mxCell id="16" value="" style="html=1;shadow=0;dashed=0;align=center;verticalAlign=middle;shape=mxgraph.arrows2.arrow;dy=0.6;dx=40;direction=south;notch=0;fontSize=14;" vertex="1" parent="2">
                    <mxGeometry x="197" y="186" width="15" height="10" as="geometry"/>
                </mxCell>
                <mxCell id="18" value="Colour" style="text;html=1;align=center;verticalAlign=middle;resizable=0;points=[];autosize=1;strokeColor=none;fillColor=none;fontSize=14;" vertex="1" parent="2">
                    <mxGeometry x="-1" y="220" width="70" height="30" as="geometry"/>
                </mxCell>
                <mxCell id="19" value="" style="rounded=1;whiteSpace=wrap;html=1;fontSize=14;" vertex="1" parent="2">
                    <mxGeometry x="71" y="225" width="120" height="20" as="geometry"/>
                </mxCell>
                <mxCell id="20" value="" style="html=1;shadow=0;dashed=0;align=center;verticalAlign=middle;shape=mxgraph.arrows2.arrow;dy=0.6;dx=40;direction=south;notch=0;fontSize=14;" vertex="1" parent="2">
                    <mxGeometry x="196" y="228" width="15" height="10" as="geometry"/>
                </mxCell>
                <mxCell id="22" value="Draw" style="labelPosition=center;verticalLabelPosition=middle;align=center;html=1;shape=mxgraph.basic.shaded_button;dx=10;fillColor=#fad7ac;strokeColor=#b46504;whiteSpace=wrap;fontSize=14;" vertex="1" parent="2">
                    <mxGeometry x="22" y="420" width="78" height="40" as="geometry"/>
                </mxCell>
                <mxCell id="23" value="Clear" style="labelPosition=center;verticalLabelPosition=middle;align=center;html=1;shape=mxgraph.basic.shaded_button;dx=10;fillColor=#fad7ac;strokeColor=#b46504;whiteSpace=wrap;fontSize=14;" vertex="1" parent="2">
                    <mxGeometry x="675" y="420" width="78" height="40" as="geometry"/>
                </mxCell>
                <mxCell id="24" value="" style="shape=image;verticalLabelPosition=bottom;labelBackgroundColor=default;verticalAlign=top;aspect=fixed;imageAspect=0;image=data:image/png,iVBORw0KGgoAAAANSUhEUgAAAkYAAANeCAMAAADA8TEcAAAABGdBTUEAALGPC/xhBQAAAAFzUkdCAK7OHOkAAAG8UExURUdwTO7u7rKysurq6vDw8O/v7/r6+v///9/f3/7+/v39/e/v7/Dw8O3t7fHx8eLi4vf399ra2ufn5/v7+/Ly8s7OzvLy8ri4uNjY2MfHx+zs7L29vfDw8KysrKSkpKurq+jo6KGhodvb28bGxuTk5MXFxc3NzeDg4Ofn5+np6e3t7ejo6Ozs7NXV1dzc3O7u7re3t7W1tfHx8ebm5s3Nze7u7u/v7+bm5vDw8Pj4+Nra2vPz8+7u7vPz8+7u7t3d3dvb2+np6eLi4t3d3VJQRdra2u/w7wAAAOLZHv///wAcdewoMn9/fz8/P7+/v+/v7w0NDR8eHS8vLz49Ma6pPnh2R+Dg4CwrKNDQ0BAQEF9fX5+fnyAgILCwsMjBMY+Pj09PTy8+cZSQRm9vb1taPzEyNru2OdTNJUBHXg8PD9XNKzk5O2loRIaDR6GdQxoaGkxLOQYGBiA0c9w0PQ8ndoBLTjpGa2ZFR8c/Rq9FSzo+S0VFRT0zMj5DVEpKSpqammdnZzhAW7GsT087PFVWWHh1PD5NfNvTIewwOZdKTSstNeTcL1BPPrlTWIqKg6NWWnd3dUlIM1hXMi43VA0rpQwAAABHdFJOUwCZ+cIQagX+CwH9GoCvUN7+6dKjPPAp9vzwKvUe+fzhkO3A/XbQ/Pmo+00iP67aPc7pQFbYNjs6MeeV117CJDdUJ0gwxT4sNgfLPAAAIABJREFUeNrsnetP21gaxpshhNygYXpjW3aFBAKSrlQJVJYoAanzATdVExe6Q0gIhSz11Kl3hiGK8iEVtBkx+ZBWVbXzD69vSXOOz7GPLwEH3mcubUxz6fGP570dm1u3qIpEQuFgLBYMhsPyr4+37qZWs9nx8YV4PDC5kUknedB1VDqZyWyMTU4uBwJz8fFsam3rcSwYDoUit5xIYWh2fSWV+unu06drK6nsQjxwR9bGxkYmk06nE1Fcif6v8j+Jgf+U/yf0R6BLUhQ9A+rZSSDnyngGtS8lEul0RtHGxuTyIEkR2wiFQuHY5trUeHxORlJWIHBHo0dRNC2/24Ss3IgpqvwbJR6nP6P/rOj3I1H1X+yZ0f5x5E2io7RCE/J5VWHST3WmR9K/7seCoZDChh0fis1u/XN1YW5ybENXWjcgBZ2J3EhCBGLhSJF8ntVvgAmdJCW6Ta09i9kxpEg4+Hh9RTYiJQPKJBV8FPdRyVHg0QiSf4U1v5Yc5Sb6isru1CMpPp5aVziKMFpRcPZpSg5mywpEaZ5PRDU8JzQfAnhukCtNaDFOB2lhap3Vj2SK7v+kG1E6meQTiR6ZsLI3z5dyKkhRlaTM2HJ8VeaICaNwbH0qHhhTIVKtSH0pWNKbbUpK/SYb0vLC1FaQwY4iodj6avx7UygKBIF6JMl+FBhfeRwOsVCUVSnSGlEJWENQL++WDSkzOZd9GiNjFBmkaGsVKAKRPUn2IzmspTbDFmYkZ9epeKBPER+FxQMNcpRIj81l14NW/aLZlfHAmJIXKSAlwIxAGEfpzPLCSsw8xw4H9cQoDSENRLGjjXhq1hSjUHgztSCbUSbJJyGkgQgcKdlRILsZMa/SnmbnVDNKQ2YEokW1yYX1iGn3+llqXOk7qi2jZJKHZQMZ7EiJamshs6H+7Fo2vizHNLV9ndwFMwKRolomkAqR9zhGlG2Osa3U+Jw20pfNaHcXFg1EtKPJbIi2VzYUDm6urS7oA1k5pM1ATANR7GghTN9yPbu+ktU3GCXTyaU9iGkgSs0/F6btmA3HNpU9RipGMkdLMzMwkgURMYomAmH6ntlna/3tjjJGi0uwZCASRhMTFIy0y4ju35367kYz84ARiMJR9E6QFtOCsYd9jJJLS3sFKNRAtLDGhlEmszT/IAkLBqKARMFIDWoPe7nRbTnBnn9gu94/eClrHxb5xmJ0C8mNfpTNaLrwgLdbqX3iZOVhkQEjHaOl6b1HjxKAEcgNRreXZhYfFGxvNgKMbnpuFMIwmr4HGIHcYnR7eh4wAjnDqFepKW70tx8AI5Cjgn/Aje4BRiCHKbbefhz78fb0dOEHqNRAbio1BaN7j2Q3AoxArgp+DSMIaiDnudEYYARyX/DrGD0CjEDuMLoNbgTyxo3mASMQVGogwAgEGIFudMH/8AkU/CDXKTZgBPICI2g/gjwIaoARyOsUG7rYIKjUQFeFEQQ1EORGIKjUQNcGI9hvBIKgBoKCH3RtKzUo+EFOMIKZGsh9bgRBDQQYgfxR8D8EjEAeuNEa5EYgj4MaVGogR5Ua7kaAEcgJRuBGIPcYQd8I5EFuBBiBPCj4YcIPAoxA/iz4ASOQ60ptnl6pCQovx4ARYOQKIwkwAozcXxmSV3j55ASj/TzoUnXs4xT7g2OMXnKgS1XexxgdKR/wwnC4rBw+t8CoXLg05TmpiqtVUj7kWZWsFod8VXvYqlqrqZ203sOi+ki0fIKAHxY57sDDFTi8EoxY248UXi7IdKEYvby8CF7gSo0XmDQyii/I6qhf7fYeihpVL6xV1ajoPdQwqps8Qfschs9X9HZ9CpeMkb3cSI1eEmusuzKMZNxb+Omr67ZBPrl1lAYMDhNpwPXfTXuTBv3PNzgioSJX4UcYI5ujWTXDqRgO7yiHv/kIo12CI5ygJ5x4dlGqigwYaeYiIs87sfzz+Kerl7hC7uZgtK+ugeHwqXL0o48wku3IEJGa5GhCthGUKhMJiMc10dhIxbVleJVy7rphZHJD44K6CPgPWJ9Rj877CSO+ZrSjGmIcRBzq6J+tW2OE4te2yqlEohl1uBo/0hjpw5AnjBjtqotwgB39qB7l/YSR/H4COZ5QIk5X/WKHbDJ0aVFsu/fwTH3YpptRiWRGjZphSUcNo5AtjHKvSFmQ2gYo5nyFkWxHHTtJtogCoCHXtMQIi2JW9JHNqOX9Ob8SjNj3G50TcuyEytZLf2GUOzRmyF2TJLuNRjzRLAAauBAZYyHZjKpcbXfUMbK5be2rug4FwrE9n2GUqxjMpMnRzzLWOGqalXUGMpvkeo/RjLaHsDRXkmKzX8OvJUfC4KGk+i22kxsmRl8dfLvuf09ZenpF9xiHjaNthAuLZ+lmdIaztZO7aRhpM36kPFV7j9w/hohRtMxVkvaftmMApoUmxJaNo20rirBnaR4m2TKjuqWRj07Bz36544G2FB969jCjZZWV3PAwSiigFnkHS4k3ifSz3vSscVRF25TmGRXZjARuGLP4q0mxbex+lHoT5Jf7hcLhhf7o78PDiNdAFexzlDecUe3D5xkaRydMjaM2mkJJpvWdSKoUvZ6CjEalJmdHrwi7Er7lhoZRstjjNuHejqr0JBtNlhkbR1ifyHQw26gRzKjh9RTkSvtGdn4sX8HI0XluaBjNVPrv8sE2R8YJ7Ta1zYw1jqwaiUTYTAezRDOSuKPcdcAoYv+nO+4JGEVfc0PDaLE08D62OTJOaLUoVPOqcYRyYzqYJZpR0/MpiJ9malYXX3+sDJ7cxdzQMDqw7Xq4HZ2xJtmkxtGpxDIKqaEhs2tqRh0Mrf3czcUol5s/ViypVBGOGTs6jjD6aoieNv3IOKFt0Vo7ThpHTfQPmQ1mdTNqYanVsK6DuJq+0RN3P7J4SBiVOSdZGPa2AmOSjbWAGiwVP8ZNyySfImVGdeNmiRsyDLlEjBIfSDvVz23bUZVx9xqxcdQwxUhiru4a2wR32x7egMjnE/7Lw4gXyFc82MyzD/GUV3OQkmXjSGBoHJ2QNimRyGt0CGY0lCnIlbrRmu/caGabduWMZK+2MUxoS5Qku4ue6K4xI3YeB0lmVOeG0zK6Qozu+g2j+RL9Cix7HBkmtLRLRERSxd+2MQoxycqbBDMazhTEP5Wa/buteY5R4dTsSr4dWxztYCzQdq9hjaO2deMIm8Q2qRiRzKg9nCnIaBX8w8Xo4NT8ilBbc9oCV2tgl4QRk2wMio7V7nxDp5vesdRe+rSKTkEOctcMo4f+wujQ8sriYtLGW+MT2ia5CMMaR8g1Ro1GvV6tdpp/tUVR7Ha7gnDS/ywdylTO3IyGNQUZmZna0DE6ZrhC/WTXzpJiE1ryJSINtCWtJ8yCVEPf2WCUdcTlTpsNWmbUGfLGWZ9hdMUp9gXTnQ5KNvZ64RNayiUiWKFVY7znAvZ8OXUTRLFTbeBmJKGtgkOXC8oXCgWfYeSjSo2X2E7eaWme+b3xCS0xya43a6TGkaWwKNizrNPTinQhdjp1ohm5nILsHua116wc7fPQxSYsUIX5ziuvCjbsSCK0iPrHGtW21G9TVdEWtaXOsDELHgErelSUPNs4W1AZqr1+/Vq1ZeJU099XzaIdmbLnGM2U7NzCh7nUwSe07e9ZTb15VkReFCu8TLUtSUITe1GaOh7dPoQ/khH632/vnit68x8ZpdLhKPeNDjg7F54zYbRoiyKr2wYg7y4Qphhn7a4xARKxxFjPd2RgBOniQhTbnU6nWq3W6w3yTR5oPVO0ZeT4PO6VuNqfGkOa3vzOcUe8Lwt+xr8P6fO7wajwyu4txT6y21GVMG83Pd91DZg6Dgx1WttpdsQLiRKVm95snD0ocV/ePEf1R83YkPXBMIQJo72SvYYyA0b7Dm5Nx8rRPlqYNWhRKi9aX7dvNmVT8OsQaDrx5vYh8qq/fW7Q+6LhPPigUmPBaK8XfnY827bm7O6Q3xj//tiElpA/C2fN+gtPpPoVSlNzMKQ53jjLEymSOdrB53OjgdFeyW4DxxKjTw5vlcm4cQSb0KJl1UnLnQlZ0iR5c/uQY+51H53P79987j/4pYbFyZFoPyLhp1TwAqOy41uuSmwc5dEJbW+YUeuK1caLS5Tg/ATvcjU9L/r85q3yjfzljx5HP2OvOgqbaPEkZt81RolzF7fuFZgGbNiEVkmyiy2vwhi73ExBytzPOjW/Knmc0ur68l478G4btaMRmPAbU+FDlxixtq5pA7ZFNjsanKI1/rp0gtxOQXiO083oLce9lX/77k+5RnvfA6s8WhiRCqqyK4z4Hbf3Emcp2Pao9328RJ252Di7z/3ei2C1f+tNoyJX1BuR6C05fX+5I7ksL7vAKCFxrvXJwYTWkZQNI1Wt/egASldTkGPuV61PxHG/DNT6X7TfFZGo5neMaKlw2TFGibwXP9vgKGp7Qst45qvtttjtCkWToNrtttp/VevWXFXcXAuS51QPelfRcdJcqMb9pv7mv8hL+3y/Eb2gyju9heg554kYCv9jTrKBT7stCHhbvab+VJcKV/k/edeyWzdyRGcVJLPyzl55Y8CAfyC/0CLQJCVKovgUaVEPU6/rEYIsxkgcG55ZxIAxSX44JLuq2d1svi5JXQrqjawr44q6PKw651R1NTvepXkV+cW/P3xplX7TGmcJARZ0KHpGZ+Sg+novPcmrjkadJKbb0G6F0ae5zlrp7/TXTTluuj0Pf/9yUXvQBWAcYlqW5ZYwpPAsydrUtayEUglWFxdf3j9ods5O2QsCMDqB8IPrgAWprxJw1lwM6aHC5jYwSuc7s6e/MEO7d1M//P7h1xMOn4D6jMhw1DiAgqh9s6ttxTQwc25KfXmQ+lOmNM5aLAqdkly2sO+Ys30pkfcVK7VeQRWMh1FAZly9RmRzD23dcvQBW46cFHiwS3LgJBYKbkN8vesXWSFN4ePaXACW3k8bHwIw+op6jTvY5KRyJCWptmIY9cvybCyMfsx7hlgvzw51Y2P+9v4f0OnoZKFV34IQggfen1h5fYDtHFNsU/z1f1PHhwCM7rgHiatKdt+/7z4aDUpqQzrtw3Ewejn3WXS9hVp1D20BoRNEkA+5KoSwGjCn0MXuoJoajXIQvTBw5jgpD2B03ICRQ75XQWmX3GhwaTae1mivg9Gr/blh1Fv1FCu0RSIDJhRZQs7ilxqx3IZBiFMjZwvvx0rSqRNnPZa8mjDKKxgd7R5GA5SaPaxJ2hkBoxfR7Cgifl/BCiu0D7+z4x5NasFHzj954EIeRCG8cqREA6hRi9CaeAuZUrtv9Iqw178+CRgN7QYKh8PoG1lg3Qyp0D5AGMpj4dISpHaQ3BLIbSaEOKRE4XZdZ/aW6KtXTq6rqHOohdGdxEzX6hsN7ZKOBsMoIYusH73hiO14TcMQPuqU4SQDyoPRJoVHwoezmfD7dDumPP3GmpVh9B3sI76OkDPt0MX+STOYRqfU4sG30RsII2+pI59f9VGMIgoFsRB+wAZCXR9zgWaLuQ2DFP/66DCi5LbEy6FiP96xlz9KvPCxYfTTMME/3N9JhsFoCWI0TA9xpIPiQmqNUQeiUgw8D3OYBd9bW9bop99Yj5U97hRy9JGclV9kdK9gTJYuqQ0vnwbDYPSNLLZ6cg7nKBB+4BPnuh4EmSrvM4hdWd9YIi+hQUATr6ERJ48ziqrK/inxxQ1GV4RcVXo/MnYNo35uNDkYKDCKl0MR2fw8LCpAFKLs/nLmDC+D3G/92vLuAY+yynbWZPqgx4ylr3Oxwr93xlzt3batDVVqc8PIWRBG3Sybf8AYfiAoYeUsxuAky3ukSF7HVkWbKpk6s8XfO/lUYo/FoSNyIISjQ5bTDmTLbKX2I5k3qVlLooj43UcwmYZIemwefVwxiaHcR5nfn9PcoKlmI2/WG2syyByS3wSddrDXzGlrTWrDowcdAqN0URh1Fiv4hUD4UaIPJi10i1De9+U0m/bY+nPc2BAx458qwehcQfdKS7PDlZo1AEb2sijqPD6Z2z4ACKDSGHUgadl4kjfoN6snpyV+X3nInbBxXyDZABq0IO8ZsE7VQe0rhdHgjdH5EPvx88IwIm+7EoMlkZ4IqVEiE+7UEGV/AJefaZO2WwtZM6DlSs1ILQ9NLobU4eg6B5Z9dcBw9V/1snYDo959anY+LafJMEqXhlHWX9oCoHiAJrRdHJbMMGaht4Q/1uY09OOjTPqhlUXiJxLNcbIDhCPs6j/GVjb1vddaDPGG4ai1MUuE0c/7S8PooEPtOJL5COGlFmK5ktNchjkTglMzM9nwUASadG4VP/NtOQxOWhaYRrfk4Lrk12znWiMYrbdRZBCOnEGNIm/J4sttvw65ABthQU0SYjGHjQMQkIKT9LlUISdK7Db9hlxsFhgV73IMHdknV9c++6YZjNZwSGhL25onqTVI/alkb3eMOxJhFC4Po9fttyEWo5LHGZIkxBAuvHONRVlbc79Kbh11GeeuNSeMinB0DRvUzg+BaZ83CdsKZj+2tvSH3F3LaYgE0uJAMq0hOrtYfywPo7Y2SJ6tIOwoOQ2TFoQqpERIrJNG+2zYByLRM5nloPQUSmqXRXY4uGbWUXMswLpHQXjlNhozCG1eZCs+GjcsXg0St6c8TbdwD7Ze31qlTirJfR9VfyZGn7osaxrC/8IMKKEoVzsXksw0qdfO7ScuN2cbikocXUJ+o8YqYDT+sAd3gCZqhdGn5WF00+MaQdgJAS8+7gVhsQpzGlAiRJOlEmyvCMHS02MnXOdbDQDPdGMpcWBLyBkU1SLDWEVSGz+Jlnu2/hYwulkeRlEr+m0x7JjoZDtwkYGY05ASObxhTX7sPV9h3LQgSlGQWFaQN6pC5mzHykqbr/eutGO3nshhD9HgJnoNjMzlYbTfdhWBIXBlD3CSAhwgKIUyqjxepSWShLCdSPaJIoEfUqUk4853xrUl1EJK6W8aTxVGQmk1XWVS+0V/FTgDFrgyeNOID4SPUkdrc7BTaZtuaR+JmcxLY7maNN/paanQjn2vH7v1NGAkkmR7NIwegWJvWgi2aQhc2QX9jjEqYvBBNRfz8pok27h3HSihKFc9JTuJhWw631Ezdp3Wrnx9HXrNgl98qkeNWlNgRJeH0UlLKpYIdsapkCcyaFRzkOoofJsodyZWuCKfyYtHwhTIitRsOldawwlHH1vgsgqK3afUwkFb03ZpP17oLzsS6a7NKx1oVUv6DFNdxAdAtPpidoClM4/V0RxKy3/kYQ1gb867mbGtj20p7YkIftcS12gYWcvDKOgKRsCsKd+IFgqvcjIMP455jGpt9LAdkrO27lI8mE6xbkxzQ3KvzmnRrHfTJP+BMRAt8Hwign8Lt4OKVvLSS9dHy+uqjDPbPrb0RxIJTjhT8jQxSo+iSrIVINo3cy5Db2oU8U1LM62E5Fc4BtJZD4we+zy1i8VhZGkf4VAU7pTvdqQSCQarGlIdxiartZOqQFEp2RiICvTw2lDS8tdPp9h+vVXtQP/OT+Swh2kwWr6o9kL3yfJgFAjBCHGS8f1okQi6jI8XoV0oQhAVMLoxncbehnlhlAojjo70YwueQ1JbnhyZHcEIBDwKrwA6+7Fuxr0khi6lTKJHkcdBRNLybcsZPptgKRjFJL9em/34l11EIyNaGEZJRzAC6gzCy+aDH0xD/B6ikGJo6yKD42YIIidxq/tXVhzNVCIz2ZwprSqm3fkHl6wYEq5EqT36AeoLO0e/vOsIRiy+1PhIJTmvFPUdPg/Ca1HeeeIzELEWWnb/isfkQh4M68yY0g6Z1idM9d/z/sqdC/6/PjKM3EdvExGCkSmKf4BPWG+9DoUohOW0sNXlIwAiDIB2Vaw21QaS+Uxsi50/c10F9DtmQaZP0zeaDKNBEwC33+6oCUZOHYwsyQ2Su2Q9PjY0FE0AR6/2y9lhwIkiyWg0yUYOX8HkA9OVQsgt+0uv2YR1a5UwWpwbGfZmweq+12FgQ1xB2DjcejRE8wg7++uOkZY/qvhtZFOOzr6pH5CsnGjlRHrParp/fcgEGlvnbP9+tOtDQv+0VU1tMoxGnnE92TOK6k2OlsYNQjmPuAlwt5pZQ0Mr/gqB7+QpjTYnfuDx7FnuONqnygXE86S0ai/I93L4chUGj9jW2ew5+kbVA79UPHptdAajSExWAB/eqg8NJIgmR9l53ZDeaRF2qj0hoVmR7Ngt/3PZvUYU13ue5scipR0z87pYl4flVip9TeR5CP5yvVtkqoj/xugORqGUrJgblNQd2rFwzzHVxUN0lptxF6Oqh+Qb6Uba+RwbQygTZ5flL7hlX37T1kSehf3I1osFRmWdaAWRGowQNnWjkSXJOUcm2EP5sUdTBqWbG8e5yR3lA5heVvOgQaR8AMvhNCXPZp2Qak3kefhG3JXrEe6q3d1nW37TW81RveUwFImK0miEHUbKhmx7aGuecL8tGimwKcLRZM3vCCntK9vLT1hhRK2J7FypvXy0aFRmgq4ibeA2DoNIOo2CTUsNngcjwIunqP2gnkFrawh2vNUtiVSPIJjcuQYp7dRHibZ3xlm2UhN5PtyIrdcn7SAyjJPGviGvdVuJn7zou6MmuwjFDeIEO+PlNZfFpnB7z4c2+NTkPloPEHNeMq9rHG8ELFupiTyRnSGzwah46DVU2/xchYU3jR+8MozP2sy2+dF61TwY1eVWV7aoU0ntQxRSx0GMFeYNRh1MrM86bPTj3kfMZEi2L5s1kWcj+MXnNBG3HEUp34D7L/2mau8PBUl+EA9JLxn2M8ozi1DWY3WW10PS4TpNRa6v+XM9XfFrhNjH40DrTAY0iW3ql5r7n4v9qKo2iwafMkrpS/HFvHXHx5sf/2RQ8k8+/XjT+ZtrAxkYdcrnYcsWNRBvT5nSv0VOo/ou3ok7HhM4DrTKZKwXu6JJx9AwsvuDsHYOIz1v0iSvl6Pfhd88YNQIH1X1h3IzLc9po8dblaNXkm5Ab7ciGB16KVRlCYylPZIdyGdSmh20Po2Y8dBBTCHYYHgJeWtILJlGALeaIUnDIAcvN4CDtbQ4mGRB4lCaimSX/yybRVimu1KMo1UI/nXA6J22lWgsveDE1uU7rUPRLEKYWEpPCOayZJxOz5Rx2EpammZB4lCayi+6LbFDYAPtrULgVnrYwy5gpD9B9PNIYsplNuVzsG0RXqj+U4Vwoz5Lx9VUc+ZU9F3MdosPpbmrBFrFr081Ke1ZFUP6qcCYkTOtaj+VMwq8wO+oMj1EncpvjLSwPXdQaJxmQJbFD0Iqo+QYzgmlxk5h1BD8L9cCozctNuOrkWZLKPNbZQp/KeftkJoREJpM2a02Z/urZkLS+EfrbE/sN2L8urlbbTkY/Xm1vlHbkztuHp8+DQgEOxGjD7LdIpfxAotPbd50jXKfztiMb0xvO4rx+KKP7JLvW/bOPjaMNMWQt6uA0Yv9rQ4oapDaAPGEY0IcMSywDbwptayYFknCT/G5RmpkztNu1riebZcJVvZpdeH/Z+/alts2kmjedj9gy/6DrdofyC+MqJpLCZQgXA1YkKWAKyleV8oPu+Xa2lTlyS/ZfHEwM92NAQhSAjEWQZp4sBOLFHE57D59O73cpNp3CviJ1Gw6xqSOAkRBQ7DzROh2V+6SFP0pJUmB6GR62rViMVM+b8MO3QJ98wpiIi2/HhrAnkX6cQ4wEqPlQbf6tJava9dFBFt0M4U5KuDlVAkx5Zkds89pPhCzp1NvpDVB99fQsnY31Db8yk7th7lGav/YMoWmRpi0srVtWSGlLAKdHSwot9h7qlhXs6fbijXHOxT5o0yogTOaSNlVDSx79fgELq1a7NsazaDCv+n1m4+Xp46oHiba3R0aGzEYHdF/BNhcprNFWrUo02XiUHdai7EZnw2Amdy9lrLMXRJ6tT4Wsvg+K/wvTxqNTR2hpLnsWJ2CUeZ67RFAF0DApFYtIhskMxaMIzXRhlTj9Ik13PdwttGl7QtGs8tibxeLeHHqCCXNe1YnZThHZB+pSmJWpm7asWHCQSvDt7CSDyMTVskz+dBdjwio9WaXdijaj98cRslOqxzWGfYGqwMNrRCGqcBRaLNOR0uDBD354lFXIDdJPXsQXktaJdrfBl3ad9bSPz5pNC51JEkJqxiiQLgUq2rsjkpr+702oZQc2Ok1russ2bjncvrSB4WltU0u7ZQ3ei5pNCp1hDcTkjU8bqJ9J+6WpB5itNZr0D3iFkYQ+ZcCF6WNYjVio/C8h90h1MB2s8m0zcIazYBiezkkji0GLW2v2tORuK04A6NU4XtyVNoqHHc3qptW9NepRCnn9mS8rS42Jdr0lWH010PiRl5hhPdUhQsJ8bbURJdgFDivNn9ysCUhY4XkNeBojB0RzCl0SS4IwZWHIh0WaPW20Flwo7n0Yr8KjBzPZP5JweKcGscaM/Mn02dbgzFKrLvLLTTkiOvFrddp6S5QjeLpU4+tMdJ92fOREH1z3E4tdPYswXmgKBpsU7NBmbU2FkYJ+DlXNGsMjKwQWMKTuLOkJwymy/Wr2IzMojkaJP4zqPAfD4wUsB5HEQTOIzWuBRsiA2Oi7KsNU8KzzSF3be3VqGtIhvQoZTw2izl4K5dOFnvYHM2ipvaXI4ERshln9xCch/0rBP6iuJWDdLgR7zEdOfYaVC8P35g1VW1dx/tyY3TpwGjYHJ1g5PMQqH1N5qhEsZDUnpVjHGyjJERq5VQYwUps5EX5lsGjKcZogzk6Bfx+PxXj+1hCDrF2mx/dikdlgx6jPdyfKgp2gJEp7aIggTLkOvCwf4aM0eqBBNbVvq3RjJtofRxRq8zPklxKHtNmB4uvBkdxqp9CWEJC2IZydactVVnnuGlIJBUxK4cQogoRsFrw0Dq5RC08GqNr9geao2IeMHpzpAG/NiNFG4C3mcSKJCL1UkammyJhCRHQcd7b1ZBsjtRkTDvAt1NuLw+WjNEfqLTWmKPsZI2+7ZGRxQ8hhJlXAAAgAElEQVQLIUQpMRovKW9ne9NqGC+Dfknl6rxgz8dg+jG1IjphkD2XAAgXHo3RDasfGWQhl+up7L0E/MeaNzK1sYE8TdkwaOGwa2cpHBqNtC16NqQGVI4HiiFhzHCLX98cRQXnJI5SeFrvCMbond74cAPCIgOVtb1EakdrjRKW1OvPj+uEMuyv6h0FebsKw6oiJk9YDaaH4PeXHY+XY95RdAeWJh4pGKOlIUZXsFdtvbJ2qvB7TT8yJdfsEbdI6fWl4Y8E2pzmv7OEJxmx8cG9IRmRIt7yb8WdYD+ONvOqHZw02B875/jRomrdHM3AGv39aKyRocZ53emj1pwa1a4xDeD8SCyoPU1aLGQ5GioxSHmQMPGQQNSVjjfinn5glNrh6xXu5VvVlmZf9H/7qRji0RhZ+xE1PLsKnUecw53OSuYE4fbpC02o85bdFFFLguQw+UIOj37RAVHAeeNVhTenBqX9K8pAXlqtmps+avYTqR1nwN8KYOknWnFe2W5ZZDV8UdRNzJZGi1CaOnxp3pGCH+pCMhjsoW772xBtznydsClOrlMJXq4/t6X9xhhRM/at0aq574u3n/JGHnOP0AASs6JC/b8EdYzsxGPoVFAbjmzPMlnHkUqGa6phLxRMW1OUkfkJI41ND5GaQGN0S6WQd7ah9qr362cQ8B8LNwqAG1fmlkZNfNbYHbrBMPEYNa5NaJEXUySBbqSyj6MwcLah9z7EaYd2yh99razcw3ONIDCrYf4amvq1Ku2ql5baT2n2xy6MjiJS45BgxLos2IOCRLFzJ4qXuB8LS7kd8l1sLoe17WnEyY0Ldd4eFqXQ5RIP6YsrK1187VRmG3/2zjg3vn8Y/e2oYBTKnOeUPxQkp+bW9lESkpbNwALa0JqOuiXfKs229HeoGiRJ0qrV966dIpfCMszk61cwn3Zr5UNbdvRgu2lnF/AfMoxUgY8zQEgozCFZpEQWTZW1OzU4PvPkgX43vs2Q70JK076YyW0XtnY4/swJ/idX91MQVa+ZO3x99s7y7m7Mf8obTTt0uF2L0u4S0s8zg2R0ig21tbFXkEvEGoXtBJE0QhI55DtIn3E13UPr3KCUSJpt3em+E8G+6/g0A6A7Q7KrOQX8bw8ZRkprNsAj1DgIItrd0WrvY445KIghQScIdKvBxJHpX6yT6PlLY70gv2oMGJeyyJ7ZOTnWp93blPVtF0YPxsnddbzaDCr8hwsjrd7gZHGigMUxrUqrgSEJ7aWE0KuGs7y7NgROEk2UYC/LGYYJ4CWrMMOw7ug8JI2WICHy2IXRE/u/9XVqzzA6lgp/2Quo9HB+gh4B14EybDHLA0r6wHQ2BGolbTZ6cXgVyuaInJxk/1Ae7uBvoPp42YXRpcXX0jV4p0htAi9am7tXmDuS8KOUufaqYt1VWCANEZNMZL2T8mNk3ZtegcKrxu5pB+oj9/gExf0ejFaWY3/cO4zmKNq3g0uL1x86dothF6TophEr29VGu2UzgA/Fa7stHSp44VKhsPQDo8thGH1l9Ryt0aHCqC3B55znCuMoO5AWIKqK3rMpF7QqCzhR4kgfCw9Zw8VojfYNMPrVYdTzcmrHVAxB1VkbZYNao1EujjBrs9YQrbTbSrurr2hrX2B+7mEmyIssMgf4PIKksTOptn8YHQ/FDinq0v0ZJDHbGIImcufo9uRaTi9b4I8tfnJSParM/7FoHlfPQauviez7Ab/BVbz3SO0oAn6oZ6DMIwrzNYYgwHvqzHuEeM8zlgD9BmqEPo0G/LPpDqnycPUY8J9dANfuph9XpN08C2t0sOlH+ARqXqSpIJqbJ2OkqpikZQsqd9nZSEU+LUOHNJkfR7EHkxayGLWxOmnsRxuoPXWAs3du9PZQnZpN+rRb+CKUAaHgjOOGB62NzQBcIcrSQkEE96lRA7+eU5wcQvog6hn0h9xfuFK076Ch9rZD4k6R2jQYtatiQNas7RQKY4r6g7CVBMU6BXCrgDq10YBE9cRzTzzIiBhg07g1yWRpsX6Twz7r6iadSrNTYVTQJ5Y2sxjR06TF6crxWthUC5JYYM3clVWSTWqkDteyoju6RuLWNwyD/tU1u4ZKW8f17qel/8ejgREIW4UcpGDbfWgR5pLRYFn8kMBwBu+vnHwTsfcpOMr95J5crb4GR8tfv57d38SAov7k7Gn4eqo14kic0y4cSNQTFR0sjFDuHMwPkGHV9RGTcOTt0h2xvifsLf94D7mjerF3GL05hkYRG1RD1kelRdiFQxuR4chYye1XPAXzwxftoo+09xim4Cj1NHetz5W49epR7wn9CHWRr1nv9s5gwOhAYWSbrFVXUoYyRXrWvhPY07syIDAmewdb1Nvdog6Odu318PdIJXOb+Tv7Z4LFPmH0w/FIQUCA35GUiahdTLSqNK7cfojlXJtlkt1MZA9HO+oTKUfBdOLRxHyrARTdrKXaT40iO2dnbCDmpnlkjCakYPU1tWsIeoVCYVhwfoK2qq+frax3jds96PK353t9v4aiu/gVpSCOG0amd55Dmse24IcVNa3ljF0uGc5yNa+wkx4RqYpYkdF2i/qQGFGUbe3tfw0YaZ993bdHN/E6+ZoFjA7Pqelp1QCclZbqjI2AGtqiKG646ZL9jOcQ6bEPU74FFMGAbULsaZAUK7EbQfIII9MY3Ok3un8YknB6bRgdRYVft4YI2W5NszNG1I3foOhWZ1b+10qvJd0OadskGbbT2puHG8fLgPp9pFr2ZHnzFUshV/FgDHmq8O8KIpdQ695oetwWRQ2M3n9ojUmY8laQCGT6YctaT/ix+3iaz+IjGVLl+dJNP9Xy96urq9trqxi4fxgdfKSmpRtx1JkPaYGkFkUaRp+Gt1OlNtAhRpRtmQbSEunZuBRS7Ef1sROw0Xxu8tr71F6sb3RI1kiDyHmqA1ogjR+6hXLB+/OfhnAWGSolRGb/0qRKbDlikpx5afYx8H8zby8bY3T1sLHMsncpiLcHFKlpMeu66H1PO5+j5YZuzghG5/9ex9FzKwCHD/HirtiMeb/0EuZnHzeC5TTDPyLGb0BERIVj5N5YJ/y3kMfs4u7MgZHGUdpnrF/ejz1+0rOSxYs4UqFlJQJ/bk3KVMbs5ulqGbuSgt9NwJ94/o1p/IH9HrZmKIvIzTHBU5mbXXgPq7MOjBocmSn7NttUfz4ff/yigRQnz/u2xtZd3l2wOPdxyXnV2WeTaUc8XOvbe6T2zUqzrQCjly9lw2A+sP+6pJNkhkpBynlP7ooWA6Pzzw0ARCEXSqb6XR8+ne92fP6gPzPJ1TNe9/HsbPVxTTZrBw9uJZKFqJKaBQmXyho7Fs4FRq9ijcw9SP38ttBsTCQYgcoZ0R72L4TR5TqMzn/5UtMX+p/vz3c/Pn25tuOx+fD3I29Oq7bM7LGeuHcmMrO3IGjqMgQ+mBE93gEjUPf1YJIU/4/42YGR+pO9a1luWzmi69xVdlmk8gFZeZdfgGkBoAlSeJIEKFIUh9STelq+vos4qch14/J15YeDeQCYGcwMHpQIWPAsXGVLtkXisHv69OnTFmNBXQSjGEh3j8caON6stu92PNvVMf6fjbk+MTNXW5hSYfBYTNMpoGRyrtYrhoDM3jl6ebIYMK/X0LhGkSOl3yzNomA0zyyo+6Vg9LxnttpcCKs552xKCe+1+jv5Jh5HelLGs5M2wIhcsd/soVKj74Zhf6fobhzTMLKpf9lvAEYoKs1Wq81xmizjSOcwY0AL8sJrJTZfYwzi0cU9vbMbwrHe11vws871NXMbJJFB0NvQMKKJH6MhGOVLOUD/36P0B6xOe0DTplCALM+IdNRejsxOJrXMhrp6dB/jkqcejJzj/R2H2yuc/YQVA7HrCWNYQJf++WT5entqAia4IpBgfYYXAjEwopcDT1Qw2u+Z0n5odCCeVESRRCwH/Xbh/MtEF+jpXnfBzx+rCgEQeml0Z2AU1zGG4cd1d7J1rxUwOmWm7Osa+LmekrbFNmB9Kwea1ysUEZ/S3XJ3Yzlp8GZhBI9FWwi1AEZgTQvu6S+EFXojBSiyiXqzP+a57GbuRvsYMNJ2ApKuOdq/0t/lYASrtbBNMKKm7E8YR1EdCRjLfXhSqbi0p0g4zQk/gtB4pfaXvVRqFYEE1WIfVTBiT/MwGjD+Q/RrJTVBqSmTSDFEgMTnaYcFcC2RjhT8lYAEq3xnO/uRYHROu+jTZ4JS0HdQhkIK8T4cKYiM7J8wml2EtUcrCPVRzFzAULR69+5HgpGk2MeEBFxePXW0QjdA2xNqNc0A74Vj6tyfMCoq/3UYit4VwqjfJhgJmUeyOKSPl1efFvZGjHxJ10fbAwXvFm8u+dpbs0ogCeI8nBZaIV74f0oYufStVQIjXwd0/NPRieifwMd/tuu3LWTFvo8I6Etik86tuuUJxrzLN7XElrukj1ux3bEN0UgTTTmEJBQVRaO4MqaKGgmMzJ7BlEzkDadO+tne6dvAlJmLpor9Pqopp+TK9KuyN5Ir4pGbBdlga7HDCQFnKPKKJf0lopFhsY1sqKT+dPOuGEaup9HbOhuGkaLYh3/plPw4twe3CgpJMOXUp/Z7BVSJD2UkURs6/O2AEYTG5mOWqCaeBrJ2qiKpTTy6v980jKTMI7S0Ncmiz39q4Prg4EEqr+2LFm0b5B9h0xheKhl0njfi+N+xmZb5mxtK1iOFkcnpRBqG0ZGs2A8Q244XyFhxMIrP9WeJvFY4cqlTnRSfZDW078sOuE1bbRgw+qWZaIQ1jIMBVtfEd2uwYtRhUhiVbc3uB0YCmVFW7CeGaUfa4ACfW6G8VhiMoKNFmr0i9A0QREDvZS677enwN5XUDFLlnMUVkB566d26KKnRTzhqHkbSYt9E6DgnV6ZbAqODB0cgrw0lmkaQRh3olOv6WVkyZnwHOlyp4WgUp4Q1ah883nBaVRmM9LJ6o9CkRTqWiQ7zg4X4z+p/my9nHn3CPCZXptsngqPr+zyFJJ7/jsERAwcq/uJb9RhNG6W17bxJX+w9uvQXX4rQr2g6cTnMT/5IYeSWFdHuW2bEFPuw6WVj5pEoszfXSUD6xvdGgrzbWwIOWPV7VkJW2dQbrLcpqTUGIwdjKXkEIKEdiys1HWEQZNLCBmEkZR51dC1e0Fcm7yuV2BgUGOIhRmSNbPuAbCRlkOczf6Xxgr+xSs1gu1Ewsw1mpa7Y0IYmDvJ90228GSKXGfVR2JziHUTJSRMbpJAyea0rMWTHESeILM0KeL6pBS79rYDRhtfpjByKfCzqqQHaRbM5GEmZxwDFmMOcMjtNbB9ARiH5EnYbRRyfociyNNikS3+LeKML9rmf45SQBSRlT83Wdd1sHkYDWbFv9WjmkVZmf0twhCgkUWRh+/ihBgJTBxyO+l6zLv1taobAkz6F9LOcBKQfQSgiZR5NVH2dCZTZV/dJYntKeiMTmSMSpBrwDksXsKUcv7ayswU/Lj4cAeUy2P4oMFLKjDLmkT1XzkN60x6gzr0vkSL1YQOWsFYh3UWLy39gNw+jNkQjgy10mPvpqlgo0goYSZlHm2Ee+UMltnsor5XlNIQNMrpgZ57tSD/CuX91NqkZ7BWVfeiQ0C6IRrQ0oCEYSYv9Occ85k6a2A6+AE26ThItHyF7lVOXZORXY/B/pxne6E3zvJHFPPYl95l9f1cAI5/uTDUEI6XMiGEeNUViczbgD9l7qKPxfTeFkY2smyMT6rvdVlVqf22oUgPpk1geLQb5r39Swoi2yZLCaDV7wTOQF/thnnlUJLanew2I5bV4g5eveTriyQIfdkOIXw3bC+ksb3SRFGqHA3HOA86FHEaVbLJe5NwpZEa9jHkcaeCz+A3IKjZEIZmSer9H2xlTTDbnrdnVu5FFSh3Jp3WsjR3vDwmMKttkvcAZqIv9jHm8hSgpSGzXYnmtRwaDsdec5QcuH6k6DyODDL47Uor7ysri9ubFbLK2Ti0HthXDPF7yxf6EMI/nSPMIUSLCEZXYhPJaw0pUJPl5yWbvRntcy1emFXL2dgTkX7YcXwQjO+eyUB9GW6CB7fO5GZGZonRL7ED7knTQhOc+7Y18lbvXmvHLnAN2+oiXBHSVN0oLtelQnNSwCIAMI7+UTdYWgtjb1ghGSplRSGLVWap5/DCQyBwemN6I5KYdpjuXJL2QdlyxG4DRRVYynwveYoyLpUOuPy8Eoy0JhVWdsrfqYp8MOML6jemgCSu2LwcHSnktDG34op2VZvHlsI2TIY1J+smDOOMz23vSKTkZ4lDP2mSBklrsWUkUVcbRhmYeT3IyI4p5BB8OKGlIQWITymvhdd1F1620ORvkrbRaYSG6/2h0wTbIpwNRyvuOeZcgb5NlWZFmzY1oskultqXg+KmSFa262LeJpHOKColMYvRQnNjuRRPac7IWlwAF2vc17rb2p/259Jep94UqCwgYXMfBSGVtdAGLbZSwyZqVRpGmPVaA0bFaZpQxjz6aAmZQUpDYvgmsR2zobtyPYKAzA9gKAfnuSUdFtLhQu5QUO1TD7eQ7ZEyENlnBTjCacYn0sQLzOFgrZopMMow9Ql14d0wR1rCDVpzYchQSuQxauO6wgv44Zz3SUUm/wWsHh4JoFBfNJ44GDuOC7apOh3+mxEIut9yULPYZ5nGpYB51IurgUKJObE+3efdaN/UViUIb4SpqA4yaL/gT2kgSjjYJJhy4+HkJNMd5XhjdiR7lzXMU+wnzeJSOTQeAQslBcWL7CnIUkht52jgjse3cIElHWWyLe+gj5vp5NSazR+cof0zPHRKjngtGn8Qh4WY35hFJyTLmMU260GwnnXaU9Ua0z9cCeS2BjcfJsXO7tTvammVhNBoKC7n12//CZ3KahKeqNllSGD3KZp5KwOiRutEJZooS5vHfzDV4TqNEltgGD7LeiK5FdkDJaN2mDY2FMPpl/zC6oGmjhZRVAtoJ+cDXscmaVYpF5e7ZLPN4xhuIJMzjmpvJnwBtUEwhpSHrichr0zczZBYdRjlftlZMhjQhW8tgNJJB7e3vSEmCb+NOziZrXhNGM8VPtNqx2J+Ti9Mp/1j7RsXEdk91Y5EQO0NKkLca7bTbGnoUApVpQmK/hd+Cew2jtbP5DVSzyZrJLjeKs63NPFo9xlqNftB2aNjwHfmVkYaoExtNIfVBnDCTDVjQwCfotQFGLRkwim8RJwslOTmIr9lrB0PqSLMc8vaZ5WyyZpJKS/kzFcmMzlQyo4gwj5cZxO0QiRZDTCFVSGzoDkV6I5O4lBuj35hzT7RutpvRKMHJkaf48iX8uMe/rM8u4bNztI+kCeByThCVYKQORgXtNYXMKMLM45owjyQf9edUrIJbtykKSdwbucoS21PWG4GrdiMigxQ5rzZT8P+jHTA6UbpExB/sNUipvoXmrC1c/pS1yZqVZYzK3rJVMiM7zzyi8ETLkHoh4KQhxYktkdfaOJFb4u3b3ezwExiNlDA6xSulLqfYuQbE+Q3t1ChtkzWrUuyXKfoVzCPybNAGHPPo8gI7uD/ktkJio+S1Br/ysflK7U3DMMIs9emoQGFLDGucIexHLnGB7Ze3yZqJS62Coyz2lwqZkYB5DNgbOMlyxb2RX5PveEK9ERs1fMcKd/ZuuvSTlpoMRh+pjtt0AS8z4HCdlEZzk2s/7A1Gj3KZUYheskPqt/SR0tKolELaaEZh05/SKSF5bXytAqqlI930fiyAkcF03H5fjtb0pTbIbLKs/rPDyKkrMxIyjwFgKjl04Brv28KmP5XYPmvAU6OoowV/AYxyjVv2OhLYwWRewiar1t1oU455ZKdhTYp5XDDtdztd2OBmic6i0lZxYjt4ugWWpV6w2mkYrYcqGB3lYeSlT6SMTVatSu2upsxIwjzCmTojCVjw/Dl+DccmoNNWcWJ7MITy2p9JjVx+lociJB3LYJSoKuxSNlli3uhCPRN+U2rAcZkr9hPmccj2u+CKUAglkI27evF1G1FIT0W9ESqx3asXIHWz4GdUa8ujwyFQwGg0Gp2QW1Ja9vTrC0W2Kv5RPrS2YnzUh7yBSGKtNuJtHO0ofsCumfzh3+PXpTkYX7QfRFFiE8prf8KIEz++nY6ouETBaH3qYYqJjQHRDnqjrcP5URwzhjhlmMfzXLFvkKUOTn6KmoGVr11OcYKDFNKXIgqJ6p6I5LXtKvhbACMIkgXLTp4TwxpnOCQs0ohn82rqje4wkMAK99dmM3zvvljd1JUZUcyj8m2BFhFr7aKXl9cWJzaRvLbb6kcBjGjpWgqjGEWIxIbl9SlrxhnsJKLdzlarOzhwlvQ/ZrO7bU2ZUQ+tkz0iZBLbNp1wj30Tv4z/pMvQoAqpsOlPVWxfgWyzXzOt2TetgBF1ZT0Z5nsl5zBFLLI77Yj1dHV3gVEKDhSVyswUncpkRpMePeBIPU03jPhm/N+092tYKKQXJ0ZeK0ls7z8wvZF5e2DUumjkaCIYncOG+vR0eDnCzX7WGri/M4xWZYdm/8/e1TU1bmTRt32YpzzOS/KyVamaX9KmBtvIkmiEQbBC2MjYwsAazISdpEJShFomlfzj7e++t9WyYEhFrvLqYTKMHQPqo/tx7rn3YuZx6ib7HuZRzNarBHFyOO0O+QbKa++biv7k9uPq0SMbn/B7lTsmxM75Xb+Q8JgQ4gx17b4ZRrSRcmyWGe1t2XWylnm0xbQ+yv6Dxw7/jT4AAEAKqa7oT69RbaR1vdGaaLEr1shPP4YMFpEu07IvfsVvO3kjjK5eqnm8qZcZ7QPmcWSYx37ii+H6O3I4LSXvHXmtpZAWRaNju60MO/p/wv9CGM2rMHqwW3xXwejq5tMpO5ri9NPZVa20/6ypp6hc1VNk18luVyv7wKudkHv1vn9uORRlM4VkHRunkNzRI5s5mOZFMJqx+10qFzLjSXaKYLRYkEQ+/H0DI7iDWsDoBlVii083OF3T19UrGhypm+x7mEegM0rMLXmvdSZzULuVcs4DZ1b26sZaKK9dl4S/lSWhLozG/gr/jCdqvwqdJDukACfai48PspjVJQMFlnCCiGY+LpYUeSZMVCTn3Rb/efVQrKuiVmYkJEB6nWwAjvbYk1F+1mlnTr4zbxyIgBlTSDVFf1Bj+82tjaxDwv/3w2iAYTQK/HqjVBzgOEqFEYhxprb4eB0wa8DCkCIMAxKE05GjBmDgClBhLp1xU/LplUBaITMabsGlDpB53B4cOAKRHrlMdaZ3ZElt1WiNOrQbHdtvUF67uQk/nksz84toY57lJzLaGc8JHbsw+njHnvV9bINQ2auoak04VV6cvQZF/0KuMq4k+5p5TPCYj6EutWijQc1jE5M/bFSktXe7F5BCanZseHrtOrDY79qFUb5Ci81ey8somiZCROvCSBB2xahTAyPqfSXNQe1MhkYvb3Csyoy8zKMASHEI08kfycWj8Yv7OBIfSAkubHesqY3smCqcldeuSU1tr11rlNVJ+p/F6RQg7IkqxSaK5NEYRnRS80oUkILF2jdnxkEV52dXr5cZ7QPmMXW6rfsn7GB7x91tKzPKbK73WZ09VCxQ7oQBhXTf1FgLp9dupqSfAhjFK/rUOqJLLdRhTxVGS1R4R9e0DkXsMxkaTgU+acgv8dfTm6+RGVnm0d2/uDvE92MAPuVUcdpQyz2QrGtjbQQ6NjO9di14o7/dGsEe/mld83VYOf7/VuPNhSqtv/LiJpDOjCFLM944ENy8Sma0vYXWye6uuh0fLgHcVYm/h6Osc0Xe2w7tRsfG5bWSQtrMYgiEUe2mIboaRvfyTt7DounLr9E0dZEVVJe4v0Bm5DY4+q99pDMh5J1zi7qcDxi4GqOXOLaBqI1saA+/VLKOqzs0Ye21evhFFUYr3NprLx4znblEd1gnMxrWax57J45Qcc8k++pz5G5QJBP4hdDqKMgXODZBIW3oRBEwJstrt8WfKrP5mTscOhs7lisxd5r+RTASS9w/1cuMKgNEwDpZwwTtbXcrsjohM0K+UYTjA6G/TI6LgVx49YMOHLtoj2iDYxPy2qPNdGoARtNaYyVOcPysYRM5DlDfRurKKN9ikAo0um+FzKgHmMeZYR77x0DMBmRGCQrgclWwHW4fHRp+8g8No1MGJNuhXVf0B45NsJXth9gtTFs7NzJZFpTQGpTxCFiMomV4KkP+dgS5pQ0gRn8ZjkYBaHhslhnpdbI62e/6VHXvDpyeu5j8Du6TAsDv6qYwA3UxhTCpKfqD4bWCQtpALbZTVEuzeeHVrclBIprrTlLkVmQkuki8Sd3XO7bC+jVk59JKsl9lHve8YvEjcuDmiT8Zsnt72NNcpMbgJXksoby2pjayswCObSN5o2qJHy+bNW2zqahEpLNSFMbzCo19R3mGHPh62r7aHhVaN4JlRpWeIrNOFnXEkopX0zIjqDX5oXrHDrU1Yi49FYudFk1Ff2uxvqxBbPSurdjIGpEZnpd1oKshU/6HIHnG7LiS1CGOmDHnkznvnNjjbVepZGz/DuplRv0tvNRBIwYY1b6VGbnGMiVB9Y7tmUyNCnjGUF5bQyFdLFuC0T/WY4QoRczQiHpR9qfQqikVyYwX+UeYOLrTT+yDCIXTKU9rwvitkJqS0waZ0dEWWidrmce96uiH9yB0m15ID31Jqvf8g96/y0x1psJ9SyHVFf0XGw0jyD96yiFmhqjVP4biiwHK+Km+i0t+VGYCYPLGzG0ScJH/FSKkMrenqIZ57B+6ox8+W51JpOWZlHgaYIFLl588mUN57UrH9mVDJ9GClD5egbJQivllHMWMPSqNLm3SvyAhO+g5f+z5e3LXII1nc5qE0xcSlQoz+apkv2fXyULmkbcMHYOxWOx9OybbG+gxKc/kW6so6Rklyam2RrmV0NDlSxzbl41UPyLiyEewBQplIjbieiSWr7FwG0uTngyMnhLY98aCZCcaiTUKwpdRA4GryK3IjADziEqwRwUZcPLIjH4A2V6mR81WpkAAACAASURBVMixjzMWbC/RSZ2phgzsj8/cve3QrquNLP52GPkytb0WeCM4CSuuRVnZGYngeRRnEx7K5rjEfkvlRuDlvQi2QL8SRawx76UMy9Ekilm0UX6Nm8Myo70tuE7W6bbun7AD7RvRCJAZPV6w3/pZRfE6Ku/zbEIK9E/IZ00cJUiM0Fgbebj+0j792CKMYj0zpIzFlevRIqf6ZaF6VM8yMw+oOEtZhra4XrKgIXj6eI84HtjLMaaERrba8TXcQK3MaOzIjNzrmwv7/WKuGadIKqL5StF5dmSIox1YgkEUUp1jW6yBbK09pxbWRCV2pDHDQJBxgzSXAEDsjeZTFtciyub3PtWfE0AZ5AR+g9dT3tVkv0bz6LkNRmY02SGnCbmUholcvtNabENE9cxoE4qqzcy2ksbayBpU+NuAEfVqQfJKqma7+4us4gGfPt49FPR2qTaUhxwlmcZOZtJ3JIOcuRxTxufcBvNV0XdWODIjsE4WyYz6Q2e4Eeicm3JjkxD5sxzIVO0Q1vhtxn+OiicRRQMhFusKo/YSflLrOy6tkiTjxdlAsUGIx34wrAp7RgOWoGcm0I50fJG6Yu05zMDAnoBghZWaxAVK9verSx1YPHQycEc/7KtYSPwclwE3wpFK1YaO/pHBYEc1AYBUTTQzMHsMO7T9Rf/WG4xacWrqyRv5PJq1VtFq5ZrRiiSkWLDHNDGtAB3RKilPWsdMY1M0S2G5NSz55j8uWput4pLmWGaUOjKj3rFnftf3QGcyF5GPYhaZTTzBJTgOz672agNrpkfsV4sFlWUpJK9ja70Y0g6MPPMdw0pVzcMjPleqs/zpFMmMfkpziclcBrO6SJ/rWD22z3pOihLk9Cuj77Iwp1VlHoeoZuuRGTHrmIgOvKn68nyrsm/gREtFrNaKb0nlRcUQ1/Q9DZGbmalVi7N4xBHV5RD3mrl67GXCUjaZxuh/ngrBcyLNTWwcpmo4mihnyV8scD/sShyJVUq9Ld862T6uk3hkRlRC5Fz9So9kh7/DooHLJX80qdqBtsNySyrzvMVsFAAKqVob2UzeSFkjm6qV3mVGj8a4x/NwytkjVJ0thA0yzaSGnis7kgDnI5BTG3Yluodex0+uU11d4WU4Sva2fEsdDr2jH4DMKNM5BbnoqBibTxXpHYjnaXh4KH3gwCmHMBMZi36BfOJQSBXHtqFOjSK99Xjuvn4AhG2diXJlnDwcOLkaCezEexMuixOY8aeZwuBd4ihT+vrAjYZw9O255ryjzLNOFgY5PpnR44VWgeyoVE0LIPd2dy0EdKOtMVryWVA/lsgGamsjGykUMZd8/KOkRh+ZmzhzWkazkP/DDFf5F4ZTgaocHRzF8rE2KaDA0URmiFmFb5g0tQcwe3TsZR73SaWyD2VGsbEzmhKaGeXa0Da/6h4jln/sABiJu8TT/rCEFBJ2bG0k/GuQqcGqWln7snABk4Hu02eJb4ZViEsDIy6D1HrTQgTXofZsgGwSXW1UOLOgipm4yRylhal44XWyw27hwAjIjCaXRkvUVRZwJIZjC27JfoiNsRPlbmMe51Ey56t2g1JW+6xY7bZda7QWMAIxtjcsujSMQCwJxFQALpkgr3bLnNq1kkE+LDU3N5UtJ/yTJ055PhbGKeuISTcaHLYRkYwbNW1+5vHIGf2wCwKv3Agb2V8kUB8vSXU28bfmfZqAFD9kaXY4RQGeUAMcW/uxUTv047ntsF4Rg8ciHI0Ew8MJwpBkSPqTXLO49/aWShkkL9IGgmhRMBLuC9UyQh245iYyShMjLJk3ltxCZWTmuNt6mxf1C2KnfACZ0Ugwj9qpUf05hx7lWmKeseeOjd/SWcwNZ8qZyGiC5LX3bWZqa5Dwwxg7rIfZPT+FQFGT4r/zCYotn+SdDBY6OApsb6p0bBhGcxEVxWJ6m61Z2fpv3lTsJ2TiW+qwXXS3drf3hx6ZUUi60Mg+uloRe1Ht/ALhl6X5VUZtHCdi0o4TaS/WhTf6vh0YqSutg5EqME3YiYV6budIfIHq7SxPWz493SnR0e21rfQzGIn/tYNwlwkMhJ2xPijZTKBwlCIVf021P/YudegfYkDE1g8mCXx6IuWuzMHvdnU89ZPWiljmaKpGPJWBSPtHXPSSBUBeexeshzVqK1MbmGMNV5irTGIhV5jjX/zsUyNzf8anKFh5f6BhJO49u9nzQvk7/s+lck66JYWmqr27Sck94nl801IHIDNiPvkcGdkYF/lFmqeA9J15a9fAkPOmMV+oEkZi3zwfIMcdm0MhtS6ibSnEBhtl5yte/5N3hKiRMPOOHAc5wNGR0j8Gd4qDjLUv0TBiVmY04t9qpCsToaYCbGOTtEchTN/GURlnkYsrSsr/kXc1PW1raViaxSxm1V07i+lmpEp3Nbv7F05QCdiOzcGQmMg4jkzsfKhCgIqYirZCiNurtr94/J7vL5tMi0mVy+K2ugWH2E/ej+d93udYhzq0yIwqNNRz9ZIrav/N8x95twekOPIEc4RVjwoqcID9Gai0pyWyEttfFkYTIQbJ/eZoVGc1DM8kXw7gDpKln9QKR5ex+HRe8nBUIyKUTXepeEsoMPL14luF0Zyje5ka45jys/HUDk8OmmRGdZsY6Lna47/Qrqpco8V5oEjXpLwljKKUMUcJkwSXobqhfen/dWEUKwRkHqZRFGEXkZ3WSYyXmbBEC2N+3wxHF4pv9IUYnKowqurrJxaMNEDm5AUYZwiJEA2yKIM/cahlNawyjwfHR0PDX1h1M4p0FAGOclYyTYyp7incthvxIUstr0E/ZEUSoAlGfIJC2sy64++qpH9TMGLhRlO7OgxpSWEUk3tad7x0llqZ4QghUSmcxyhObBjpasZBnUhDUx0b9QTtTaahKY0HZ5BVUt0eR0zORkPFYMQlM5LMo8hqKWeOftvRDP3R/s4bkQFnmiMSRCBS18FBTwTUdOjPEvnbL5u3Vz/cVKfWV+RBrqVHLHq57/UNG0BcKEI+tdBNIYT0CPoWn3bt7TCy+G0KaAajlE5DFRFJpQlaDtoEIqqbUabV1yoBWV/m9Q43oxUE+IK/6xitptoHDE4Eg5BEVKDTCP4iN7S//Aqd2oZgNNFXZ20ueyiCBC0zUZa4Fn4QfltQfxGyI3J1yWmEx2GkUkpEmERhlJuakVSV0JWCeTxwCkQUmZHKPIrdqSGvseAyY33l5BSNxd2plJEwfH4IdqBAJIkNvC1hY4XIa3+JzZBOkpq3bnGUNBnSsg8yvevJrdozGeHo/KIO71dXF/VtvifNWrYmjKBuLZYoznwGUQojXwAhd0i4K5HTRq6Z1kj5Vo15FDhKGEcV76hWNgSJUtc/U7bVCMQhWpNfEths0E4RWFEK6cvmZ2rdaLEni8maxVFqLV8YDKRj6v6goy7m025o1yAkwYNcC0aMmVFm8ZE6+5esthTj1j8e2NFICERUNyOdedRX9OFArDcyqfGTvGNRS61Qok6Mpz6r9BmbzUISlddufPm6qxK7jiTBYq3iaNlsJBqYS9BJGg3I7uODRsag67f3H6+vzy/pRMQn3NHaMCqUlyAwivm/pfLVExljziRmdm2ByIlkfO58qzJSi2fS8sM5WOhYzuI+KFlNMpAp/Id6g1M2m5TYg5wVlPh88y79HSW1owI5IroDJbF2SBkeDLCR1TxOCD9E0ushdTprkInI+TvCHa0Lo7MwDHMVRiEHAn05NrdVpra+LKhHY0Mgsu9JfBrMo0hq7A3NqVhkf2//UP78S5HVJgKPJby0T85PYW0/LbEJD+mH+bOb9rl2+Dua8Ecg+lwErTjyRNI6q6KoCkNzXW0ld7QpU7KsmHrtwYDoFVfgEF/pjzUa1o5GuuIoEvrtTOO3U9mBD9DXvRdCI0Sxwie1p1JAPvVQ4M7l7KU9fj7fXv9EWIzEIoJ5XGrCVEdZmrG2n5XYc8ZqQ2Lb1oY/orxr33tULGIbW4fY1cz9wXfJwgIGG0a9/o4a1NwzdX/84zBi/5RpqgB1akv+ZfLh9W+KQOTYlhmVbhQhfoxffR3HlF/2ajNOP1HVkehVWT5jfzAV0iZg9J/ngRFJC20BaYY0aYeiVh3YRfYt3Q6b0oY8MS0krt+qZPY1Sn8YRhglhiQz4vol9k3CF+3D6L/D/s7Bye6ekBmVCvO4aOgsFrwCD+w79wotCv7mV2LKDMOQMgMenuUzUmmnXIUUbe1mSCRmCs0BqUD20qNQqyrU0ZIGI6q2AV0/GNZMDUbmAsBzJdT9/g/DiOJF8+A2YKSN7NWDX/eQN5UbdbPGVc+cZzXHERETIaUNeJE9Z8S8zGe80p5SejvcWn+jSC6WNQekSUNWo2IyEa9IeIDxGxFi17c0h0RnSrjv62h0ziYiNIj9DIysJXEJo7mOj9XN6xdCZlTJF1kVjR1qxbMadzau62wpMukLGHG5ScbGiiyRQaWNQ6lCenYY/f3ZYUR60v7/m9XEaUEF7/kf4DFGnGkiz/S7iaN7Ksy+r2/u9c/CqGiGUWgtG3pHe3Q2It9K0NynztjZxWI8S4jM4HREoPTCE9SRsNiFJJ+lYSYEI6TSTviAra7/t5Q3Uhdi64ePFy2b/E6vGIyMcASPseLDL/JMzVlufHmN4otzImB7V/wkjNTSq9RhlM8Cm1VcfH31YiF5zNTFPOqiTzWrnbJlyZGmgZxIwUlJYV0yASQvkio2st6wpP+fzwEjEBQVsxYiu2x2pmI9f0nF02QI4p9x7WJujleuiDCbTETq3j88+wkYwcEAS4wG5WCQ9nQYEZl39c2zGaHrduYRmfOyjJ8XOlR8bw5RzEJhrCzOnVXlsi6xATxk1Sgd0rkaKY9+iYa/cxgRQ46Z10hk+y3+ZrR8WiX1/yqJeg1G3Uv2HMxjauPLy/Pze+5OG/bcx9KsByOa2WIVO8Zfw8h0Y/SyvI15RGaUmdOj1dS120OYs43F7TE+BxCAATw57/ZpeZRuHkbdTPgXhhtsWiCMG3u1ufU0ETLDUSKnaykzY+j1vpnXk0dEfdQR8SMwmqumJzaMiBhpaXw6cEoXHIN23jXhc7XRji4X2YV9NX6nYs9I+JgOZUtuG5bT8ijc1mg0o1o9JbFhZ2KbmGMza4024NVExfjsqeIhMy2seCRWJuog95MwSsIwTFphBCOa21Iv/BbVXYnwI0t6wuuBqAUUzB2T6e57EY6+6TcGHEZAdEwEIwJO0bbCCNf4WGrHvcJwpN/Qqxn7GEt7YgKMLuiplxGY7KVmQ6f1/ezLR/OfhJH2pcHI0PnfZitDArN4ZJoYiLU30EAagpPXYrBWrLRwRHY0k5hqsonEv2TLtNvaqe2eFEz7qoq/As89V6t6TYZZIhyFVEKKyKpNg3++NqY9R8uOYOT44bNUq5O8cfGI1irhl/pTwqjon+wzscmNU0zLHEaWnHYAOEGfVmytFcTuzsGYrTKI8J8XaIHXoI58B9Do5ze5jW4TKnGvv6mAivaz9YzYROSd7S7ZHYyIB5Pa4g/H7RqZSDgfKY3asRDn9kX3p4Yj6TBCZiBzTmOHm7cQ7QxGOzujOiB9NpxdzAIJ29q03J34UlcNXtospFjhuugcRtNKO+jmoVL7s/fjNsUeNz8iWyakxAYL0lOhfbsxuUqhPCpQOgciMpI0drhpLfbLLmFEDs3EanJ/sAskbBXZpTvxKV5o9VXK+rJwTl/m0rzR3eSr7mBUCv24wXnN1Q6t38wd+XK7+hOEn/HRcd3oi/mcrI7iWOljiVql1Gb9OOz1foVOrSNJP9NAgC9dZZg3zh4psgfudk4+sTlfEYHzQVKLzeZyWjAV7QhG5HdJdd9BfnW1QbgpGqmjpQi9fD47koPaf2DRrE2Qf6do0OtPzzyTs/6K6Wq3OhpBQDqtb7WCkYd5oRfahWe6ieLHhiZE7jxNq4QZYLtwBIntvDsY1ehNXVwFX00UcfF9o7gh4dTXV8cN/JcknhbKvYmE+QmxFin5nsjWrjtKRdZewVwxeHdcIOxZ4Shua77YLb3mH2CfJhS4LIaY78IREdM6nR2eBEZogJpMl+tfTmnbMG6njkLkufSngaiOsKI+Af5xynlHQmMTAjLa2uVrRdgHsnWl0n5IAlRgK9SkbThi385HICXjljA8+M+9Bhz5Vx+dtldPAyNkF/5qjSSL7VW/Qbx2x5Ehl9zE6Wo7e0K+Vn9rptnhlvOQWYsQyUiRbkYo8twwIlpTNbFBw4bben4LR2wkspLLZFzBwfZcnThCsXM2+6QwajQdrbz2gDTkpbPqcgPp6XTEhJQyHCmvcsYyJqGxI6bGrjZt2vfyWWBkJraHT6gIzJSVtjVrgUIeGdEo6jXjCKlnSnUCoxZjtu+mH4GR1TjEF8LAj+1PxtCxvUKrhXjzwzvlutFyWSWsKIJBNZGYbrrE7rJT2z+sS+zhcGQntkxt2OxjsUJHhyzSGq2NCrrSj/mHeuredas6gJFSQjPPtmmKHWVSLn+lGXaESiEHeL+jyY4Q8f//IKiRugv53HNdHLp96na0iYb/d31rtjMY7Qd9OnXcsxKbhqOZlR/CpmZtlXNjzbOKdmqF+KHvzhqkAxhFuitSOhjEDV2bPHwgHqMmU4ipB/uzmuwIeMjfPHGHsOIuIeM1mcoS76z51p4ZQl2f0K70bakTG1Zuxp8KjhZmOAqbtAAkvEtjzbpfay3NnVntKWGUadnUrrenUsryqbDia8IhcWPKjvpElS2q7KFZ5GVsKksHa1srFAEYHRzpG+77gTS80nFkhaPEWZMKElKw2LEeAcJinaz2lDCKdCcUh45THtk2s6yOSuG//oZ1IvyLmJbMRE1VtxiVrhgpmO6ISCHDrT2Wj9RGxqn0+2Nt6K/gyApHg0bhtm5MVBJjiD+CeFAmLpMkV1Z7ShiZr+f4wak4vGvxyXhDqzMtHElmgC7hvlopB4euck1Kk5KugnqiJsvtFYqoFaPwTjjSAr/EkTV9bXGDXCTahL+X0zC1WgGkpnaBNO0SRms0hmqFpA9HhNsDq444jMYn+/w2YpnWfKVbi+FdZWxeCW3/Fjf8h7ZtC8yyv2vFzEwNNb5D/4jTpYEjfKdJxuBb6vKgZNFsbia29DlhpAShVI5UE1EhBb4Go1hc8UYktQLOSaJfL+RorYjVGwcvlNA1YmIGuemt2Zd/e9UZjHZVW0PB0xZoObXj0ex/5F1Lb+PIEb7vaU7BDoLdywIBcsotf6FlQJT5VLttDm3QFAXqQYlnB9qB4YEPNoLM/OKwX9XVZFNSAsgyPMRgYXhtWWp+rPqq6qsqm8jAjSpifNM2qKleRXwLoEdlJblG1nGI27PAqLSShqb5IKVWNkx94GfGzdElfwLC9tiYPq8/SDMz1DC39Jdi8okcBhl/2B7+sSVUR9vqryq8i3oFW7AtMYi8UQEvZOPwa9P0ClmFgInQTJfap9i3mb0hjMyENNapt8GyL7bDMApGOHc0HY9vLr6QO1Pq/0rSChi5nxnqmPNyf8BkkT8+szX6fNL0Y+iC0cVVSMIFyh/JukhoAYRjZ1v3Q/+QdFpJXvgGYp55ZDlaJ2MbpPjtYSTjt8TRTt5eX3H0qc3RRo9bv5jiw0Juje+teQbURVKDLYZBltH5YXRCin055rfd87x7e119iO3Rk40j9cCV8cI5WZR2oCEs+1oZndpYgxwxpCixr0LAqEgcVyRg5Po/yVEwWlnzUO2+qWfgeEaobdr0167xIvyha6BrzTfpjdYS8RfPFqo8e+aA//Mb1dTsq4ujjW94j51my7odzI3KHvlocYPKDsQj3Gw9/7FHCh0NTAkUFuQw74kPwEhjv2vwQDb+gHCkTNZzSv50HtatKWOnBpk5pOB4GvtjB/yd54r7/vtJD0cLKvVHy37ro6veqkKdKjMwWqnA3u7ZN55t1bUs+ShPBq6W0g9dR8BIIAcsaC/6j3XVH4R7M9iYVRtiLYqRcD1A8oj/tFlYwBK9PDSLfx5rdMMuRTbypo+jUHg0JYMM5gMNa9q0+yh9JBcyimlIKzn2yLpr0V5N0P99xWS39NydaFvshx1V/0AbVTNQbgW0+atRRLRI88ZyxMglA8kId4JzJILgczJ5W2n8kwhFxED7sXBIrO/XWhgsoaEfEdO1806lKlwLMjmNqv35RZLUYs2LfFYzSPjmdEDoCjSnvbaRuJJ8rhqF+De6FsiGEX/ZcOlAEsNsbtXXXs51kBBQyGFkoMq+Quk1WVq7kpjSiUmWmmMTD0mgVnudt8L/+VQB/8z71f7ONcxTn/RwxBvYPMOfS5OrtbxZZNMjiSMzUb/1gNynPYraQ5ijw96za8/KVfLZkh29iRtGGj+03/qR4zfNHDIVXRrxqW5ZewX7stSnBXIANhWgalCjCHLcZaZxfV690clg1D50/7a/NQ3NsAONozlKRYcQrFFXRSSKzZQ+/YXwa63JEuW0moph9oWYisz/szD12mwQRjZoWNkdBej8pYUpfjXLdG97LLdq63lX4oFxZBoaF75YI2IrRkSNto1C9PtqaWThMI8f1KnxM1pig3SV4qUGPRwlIh5Z2m7NyL6K2AqzZx0cSUvFZSiFWquRBwZH+xYRdyK2qCBHwMheDEiXh9YRMKspEgI2RpU5CsGJbyTLnnaa+j/NSGiKa30NW3zuZQ8nG9rHg5Hm1rx21U9FWjh64s+ZYtmo37hsjUywyrq9tPo+bvhPZkLJE+YvYlxtCfHfCu5OcSyMnJFX/+pYILqrDgHJokk6MS870ZnZBZkqln1jDarhuGKmS3TZF7/E5+7hP+E+NWGQpib06Ge0Wxx9R2F/COaIDk/x6+CoqWWzSfxiRv9mySoWkiXgrnQQRtQ9cOkAjAjNbfyld4eARF2Td2S85kENKFanM7aNES+uNeQJffb6HcDoL/94o7V8y4ZUkz0w4vW1H6gj1AN31Y+Q1m4xpPzRF/FPzUAXoVKuGt7dg2RGQ4KUansUjPgAwczeRnkQSPYkmwbjyBjOQro1DaM7c1Z/ElwVaeqfgxupzxuQ7krVTn2tMrxF0Gzt1rq3b87IEI6+PyPRyFYlmxgHnmw9yr89bOIjYZTUR8FIVeQeX604by+QKrswEisc0VBGqCXMjPwKTs1ePnqLcLQkfnxGGL2hFtsY4AeZRLt2wYgfGFoSXW20W2PzwTF+PeGhUXgL5FDIafPa/zd+bzfJcTCKFqPif4ART1jh3FG6Z9dOl55pHAnqbGY8Krcm0rFfCBhzeabNbsAenSfg/+cbLgltDyRQWbWryUR9ddk+ZdNbofG7RfrsVw6Nmau25qTCOg9pWuAe5WpaKYDj1XqxXjPJ3RNpuzASfaijJDgMoxUiubV5aw2ZDW6Rq3uSSG1VeaeUMcor4dam19719KLyrJL2V9QkaqmPzp5+PJ1Tg57RtP3qt14KaXqjc2vXEFzxVTwet0gOerRyTuJkHd2+KI3wTUf8JXkH21boTLO+5sgBIxWWz61pV24YJWTFVy5pCo8t2C5wD6JxaP3RNN4HuaOUuzVqaiKTi24K10wZC3Hcf55I7Q1gNKsgKPZbXFjFay7yuze5tTsT9j+KNWLOO1g442j4I68LNHko5iqTmlTzWt2dapBj27vYkyxbscPa6lGuAkU9bneRmE7r6s4tHOhfOn+0E0xP57LLhkwGTvWXJ4QjiuTI7yDgP42Idoc4MP/EVontCkpEKuz/geiRrzMkHXpUV+5hnPqlalWXWoPacC0TjzlrD3+IY3d03rk0EasD6ceYhCuuW9KruWwghbMjpf4/DI4CH9xeopOQ6ijHk8lEObdf7mwc6eji4wb8LaOe+egTX6M/M723pP7TCuzzS8Q59syZPSqpe94UFNcX0lNEeZnxqXY/+J6RuVR1VEMcGyS6eSHTBEJ3CSuRB/KWarlaRo0hfVkgUeND1c8alXUfyt9Ni//O1O7/Bc3YKKEd3vRwFOqVge9hg9GppvQ/MpJuEI52ny76qUj5jS8mby2yR5oedW9inTiYdmr6m3NstL7xu011jJccSGNTnq7MFbCgjaBaDFIqnTNFL5ztBmeIyPbsHiif1Y9VFCtGMobqkRPcj93HkZQ5vIvZjyfap5aFxE9RVLW87NUd9Ye/B5XRS83PlO7peO0TbXPLxEqW9TYMom+ZYNwBbIwdgpHcAMgtWaFCnzzSCQZaDia//UisvC1t8v4Ib6XZuUxnr7anK8FUjA6LTRD3h+OZm6riP5uheI3FHxxGo+cVaaBsSRm0X5mD0QvtL1BVpCCmRtsPk51U29RGm3XHaChN22bPAJlI6TmAvgjwxIF60t2/EyqUUzsSePmPeVOOkI31mL5WCXvCrS2sqL+TOlHMu7VHPmB045MmfwdO7a8nXT2TI+7Shm707wozdt1RBm/fcNQPWciePchcTNs4NkJri0DzlbdRtaWDoZrU6XKOURS66X4+mm/df93Ohkb8Lwhp/arFDOMyBCTd3cwOJyGNeb1Dy2W5hKA3qwa2Il88EVNf42Hw6vzT1k68wejR7JjjHi6dqgpIF0bcdptmDy4JVL/GMhcpDopO7YshLhKVqDiikBANTUXTau+Ic6NCvX6uGRPL9jJzDaO1PVEAFj84HBuLksxJ8huPR2t5jx6ZxPgNTu5e4zA4qj+2NWpvJOOnA1mejcDR9Drs1UXGsJVIrozWxTXa9wNx5vBtJiwkTbEwLlDOniiGJEeAgDqRxkKgtCT7I7VRPFMuN2iDAz6dW8w3qUT5hc+21I6tOoIhKTofcCsMDY1AjzSMxlO7hISblNpI76OWZhPT5Zf6xmYwkBtP2gvnR8yyHunW6CCO+vpaYeyQD/GTZ0OlglWyZUNVNXBBctJVUVvyyuHsd7Ws6FpO6YqBwpWV/NgvibPV2ri2uUtW6+FBfpweTbGclt3i8534ZAeRCt14HzZvlEA+JTQ48rU9clzTCgh1LUL+5R6L4ByIFaIy6UY/8rmE5BLm4QAAIABJREFUhLc6ojRbtQ6njo7IYnNqXUqXmLRIxFO659oI972tLfpGYX+q6VHFTAIhJPQSiv237Zu7wqf1a4BUl2z3UbXYKJ/S4miD7FF6af/ojVFCgFt7FdnpPTgaEC16dmVD4vhxneSDxVmrV1H6wjg4YtCsyI/HlNBFxjUgPODiefRIeyxotfYfDpfYSsmm/CX/2LGxybNPsheC3F+k4ZV9bJdL4j+RXurkjKXZE8OIp2YAR35AQjyXa+qRq+k1825st1aJCM8bwlE2VEf3LV30K4CgPAZGct9SfkSFnxOagsvWKN97izROei7u6OX51YXtgSLLGkQjnqH1LTR30vu3Bly2rF1NxCUD/3tMkN7B0L5Tw2j0jHHEiPcL9mRkzBTbRm4tl78wZI/Ww7oee9NWmD/3Bjns0Ru1LukovZGYra/mMAjkBAobMXqr6z3TjLfu0t7OmvdQ+rJ23a2LkFRapt8aEtJzwOjtIzUolQE/avHxZDWMMMhEIrdG5UM8gKO9QvzQEtxXoh/gSBjx5b/HwWhEvCRWRK5QMKiQNVLZjiF71KVci42uEFZonGVL3q19IsTqXmsJUgoDbs+bN3qbBeqCHwGOUnw4X+4ZOgfj1mJVWAudOKL7Zc9hR/6/XgxKRXpm4qgGoxFKXwsxk5jSjbmRNCebARythrKQacXzQGsUSdy6YAS9fjs9B/DngBGPaSjC0e8gxLKcO3JrhbREUDArDkhqO0DqLJ6OHvz4KBiRY2FkBJBUTOlWkZos5pZxXKqnx4WjYGH1vGJd3p3I+8fIMf7ughGA67YhwZKce/bjm8FolG1MPntGmr/p0r5Vv27dmq7Rtiw7HMZRTQ/df+od1yp0oMFoEEY58BuUN5LxupThCkkuEG2vK6jNCsaXyJRdCyuyR5sMoQuko5fmXZqsyXQpDNLPAiN+xkuDo/9yd22tbWtZeJ5moE/z2HloXwYG+ku2g6PYullV7ChBUSRkS7JMKGloaMvpHEJoOXDmF4/2fe2tvdWQHtkheiglsRVb+rSu3/rW9p3WdzzjRcjf5Qip2sD3C5NaiP1wFdEPizXSCR3hY2EEiLmiih1jaOH2iuv7Li2cfjfgqIWfPq5EMsndWve83cFW9Bu92b9S6JFf5vuuYv/NCKN/7AVGuDriSYbD5tWRMh3KqknvZfjpMtgJHGn17LwOm2oYSY5EySZ4xNRsmei4shMDXCRGqmvQO8Hem04fuYR3J3AkijzlujFqCtYiW+vC7Ari6K0Ko3ipFW4d5zmUH8e0RkEQwFkITwpjnMJSv9wFdSkqPCkXYJM46nfcFZXHMu+RM7ZXrFF6Vf8cRrhutG4fCaMMzOaTDn9JOvyV0A5Yu3QUM5M9fDG8Z8za7nhlDUVQlF/iSPhdvYT75WXDiAxZxPCpXcm+NKb5z45XQDiDUUYCNekHRUUTc0NytMvcqKvFmIjmphpQXeODHkkdVn5LftQEk4HgCH8grT02KQgsmhbrnwbM7/0YqkMCu5NDhj+gWv3g3X0KxCVs9nM7dXCiyEjLHkLaVYiwIJiYR6yEVhoOs6ngyOLs+MIDlJFz0SkIRJtfRFVxajcoeKjIUpdceZ6dRvvEIzGqhZDIu2ZxNF/S1dqJI1AEk2drDr08QQ9Hs+6ZK5dHjo6iw8BI36c2Dozkdu9ICvG1MF2LzAD2RJTtKzIatkmdWKJosrbPP8s3Vr7lyHPbbyq87Uo7kAnapP5YMhY/L0be+9Y+rcL2Xsdy2mUjZR4JDsmI1uz8vMvRZkfPD0ZvRnJqEd/uTYjvPDlerxAgEl8a33si2krAHElAtYUxZ2czk80jYGTN8YLALl07VKpyAxVGSK9p8/pRpKO8zE3Ehf9SHMm0X+DIcpy82MmQLm1Zc/n8tYx3EpmubW1zfRdibg2YI2mPIrWTkCv3o37EEL2P6sBwRBhGkek3AYFRpv2wNjGIQrHANANy75NiZQ6P6GUpGi7IxgTYSmqUVsJU3f+pq9c5Dj2l937/MOrP8I8mBYGzKjrHXMFaHX7gIkHbi6F9PjmTLchExB+y9iOq4HHTayOIp/oRexhsjFofBYGFCEBgFA6VLrlnIwtMMUvEX2MVlESn7n/u8yCJVFKmRNkklo4V9fAOml+N/TWsO3rykidDsPB35OP+xhpkzpXkFnpgrm9x0fm45cXFGWmRZCLZdZBh+KvSYCR9Q7ZHGLV9lgm2JyHvc1TwbFzRCLb7a1wqiJVP90Mk/SSU8oQHx/Xwi3+aYHRxIKe2HxItEf7OWYAA5nC+eyI8msfS4592Fv+UlbOhOZLRUfd6z+DYOo8J6kn+HmGkOdCY7ziphWHM+3EP2ByfTYJWZ44kOwC2covu7mEjcTN7HjD6u0nQeBQYuWx/ZeGiRr1zoJrtofKdrDuyPIX8PzNERzC2AI4tSdeP6f3/9TBKjBxrPP7dxV61y7n7XKW70sLssnYVw6S8asufM/8elm+jRR9Gy0NlavtYPcP3V0akJeBChk0tSWweW9Z7NDt2YjmQPStR3k/WSKA9t/Dif9qx/+th1Mcs4Vg3Lsjf8hZ/rSilpCtr9UjarWIOfV+k4CiP0fa9DqPLF52pkVABx9g4TAxU8rEv3dqcNh5nkthRsveL125MNWk1zbYS2rJRYRRahofSzPezhr+Cii0XMszeDBJSqKvcyalsgKNkheYnKozOD5bw70W0L2TPJU7781hbLTYXOLqi2dq5NpAtWyIN0lYqlPIuGJYp5LAyU8JC0Agwyn8mztd5KKHSXYiiVlwOza7dx4rNUu0R3iHwllEhePnt7ECZ2p642LyMjdd8R3o/Cri1U5UxsmQnaLVGv8mxGQwSwFEXh4ejwmhiUlYDfJZACvBHBF+ZtbkW6uZoLlYRKDjCp/gqOTbHdDHty034qw48JX7GcNpffe/dMkcpQp7ojJGZ2NCQ9paUQ9mXfoTEypFVm6puZwwYGXkqMm/ES/6wSndDpAcSIjRrIfmHvZbIBRjT99aKJ41e0/5aB6Fjoq/xLGA0UhWbzH3h9qzfnxlM5IZ5h+Rmp32tmkw88t7AQFq/WZu7qE37odIYMMqNwTznIZAJNr50lla02Rtid0jUL9Reg0U0wCXEW2u/YGlf53h2NFs8i9hoPBjhmlHSMseTVL7fqi1MKX1EikdLR2UZL4QmemiKScGErB8McctGhdHEHcJRIHRx0YSOswn71TNH0Ouv51pGV0awvzZJ7jpbNTt8a3YfC9QrnKextL8I+zPHchUv74nMlpceWCl2yhv9CUJzg1w5CDCy5DFCs2PAqMZaxAYcBQJGPsvn2am5vtrV0Fx/Jei0/HxXKtWqe8H23wfnG+1nhh9vFstYnoKyIMfU0RTOC0rqkRg4mp3ARr9oOjg/GdnXSD9mpzMGjBIUf7yxqYaQs4Ws258yJ51r2vDSHhV6XdNRlMDmsJPYxGj3x6vDdvj34tRa1gsh26yY5FAFnykJji3Xo1MPh4Oul/MbDFIcmmdbaafBHQtGnVF9mN66ZhytcU8HiwKWAZhgC1VKrXGStu1brM+qoA12bFJ8/eTFUvp5L4QnbAxHEXzk5DTgV8M5lqJm6SKL+H0Egm83tYmi1VSibRQY+ehuOr2+MeMoI9AgXJlA6qdvLVE26sFf+dbOTulI33cXdv7l+cDo9Tgwor0QnO3jAhwOsXGx0AUU40qEzu4OmKOF4NOu+ItrZN2hAPe99l1bKP3LaDBCH6fT6W1p6m8kJX8TLMA2tqS/12b5pJfLftxDx9YFBZ8Wz8KpjUvpp9u98Wgfz0ZSUOUt5kgOlXJKP95Qc3TmOKczXNpuBU9+a8NR6cD4Wwu2G+pQaEgyFow+dDCaXt+Z8rWGqHQXQaZUt2nUvdtYm36cDqCF79EKefD74TyYGqSXDKMiY44tjFFZBYHb3T1le0ctkv75DrGFoidYYoTVj2aCL5Khgd1AW+V+qOl/Krr/48HInZKj79jcQmolVX1mgDOg5Xc/N1ms8oqus5SPyZZGSIfmYv9rtIQ/xOARjbVkQmUSVWUPV1zKjTBHYiftAuf8Nbcqg8PWkVKfdOvEmPqPBSN0S3HUd2w4+UrbyPWpqkleh3RJe2XE0bpfH9d9efxJU47Ej+ru/BnA6M14Vew2mYjGGrYori4QkwJztKNe/tgBKtAnIsgu7V6tp9eH/3KzPxi1OMgmx8dySMaI71/uAjjW7tgMDOjmFjLA5x3KFLwF3SXcvH2x446kei3zNAynfDJR71OXtDgiOro8gj0RqlK74jd80KthGJZIW4Ve5TqMknFg1JQkyCY4iuyzjCmWYQ7Dltio2sA80lZleZaywNVWU47EeYTzYrUfcUiJC5BEUJHAKWeSmxNTdLRFuxmZ4BcHPc3/+MM5bI3wesRE42G7VaCCpP/fImAKMr8Aoy5+vmEwml73cNTIFJ5QRhiPb9X3aqmJoWuoSGEdGvWjJHfOC6b08zxNwimPuLSP5NZEIjr6Q4HRhdpYcwejoy21NViZWrVJWTMIozVsij4VRgGKr604isXn529fYz2ktGeOdF3CtX1g+3Ov250eBEb7INFmPE8TZWxskjR7PPldoCNC21dwKw2fWk/1IpOxesTvwve0xwbw69wKI1wuTn4VRl0Y80Ag9HBz86Hn13yWI7gkHnZrRgXVzVE7Mc+dfLIUy9Qhq98OP8P/eqwQmwhsyvAIZ2ydScKFyCwA5sgTOHoL90DMWCU74l5tYK20B2aYM9jS5CahrfM+jDAlsUWxz/UcngqjCc35H0jcHN9GJgoI0WbzmZfDKWuq1qmj/satxsqUpI6tOjiM9tGaJXkaKGNTk1RUylAXZIFQ3tGCSYx47ESCvWZiHUkYhSDDWRydmfZ0erUKo1qnaTwJRhWBEbr9eIfQ3cPtNxT37FHA/mTCzQ75+yvo1SLT3rbYbo6oZm1+WBjthbZGHhYRHuEiUk2DpCwIOjvAe7TFTgTPMduSsVieroTCiCgdVfZcbSOlJrpbRN45O/fsBEOf3VlNY+hJMAo780JDYZd4tm/o5trtVSENMFKY+6FFQMkOI7RZoV14KBjtcbvjRJaxMZqyNej1rzMRe/4QF8oBKtAzzso6k15taw+wU9nTFOuiFkvVJnlDMMqfDqNwQpSrPtAw+2Pn4PT6UWZwarxOfWFM037q1RDZ8CB6I88ARmNVsbE/I+ERQVOg9fp9HlQGAh5dzm9QqhFezVqBdABtwFUEgN+en8qb4PgqjODodDn5NRhVIue/RuV0ettzayTEXoMQm9ept6UVR/c76zgSM0glt2O/vViiCOb4kPAIO7JQJv04xK7JyHTC62yOCLKX/TMJr2arQM5LqP/Lxf/OTk/P8OLkxftz9raNBqNc93cITZ4Ko85fsZz/AX3r/v3QY8jKhL+I6DdKlJzfpCPXDno1NshNIqTfDrwzZMQqNiNh+yQ64v4saaWZD3nNwxMxzqf+mYRXaywxtiNvfRFzqRuilIzp3cRPnpxflCiKZNCRgqF6XrMpfgFG3Sk/UBTFtMP2TQ/LAj5Vl0f8C/2p5GoGAmdq4UlCgHYWq7o/jFNTrdF/xoJRztjYjfRntNfflITi7ouMhF+pHXrHeViX3rHm1QojJZtXHtk9dQRViQ4LyGhrIZtWnK2SKpU//IGeDKOclCBxuka9mxZmxwlshqzN3DTKos2DunsVWSRRoP+Td229iSRX+G2j/IDNTZqnSJHylLf8hfbYBtx0N+3GGDtNm97mZlhCwBprFI21GqxdZ5T5xalTVafqVHU1sMlgyCwvuzvL+AIf5/Kd73xnO47AXtUPP3y1R0JBdRgKqgjzmay0IWjQm0IjFbfvsLKBJazr1vW1kdUCZ5kw1PxvVy8EqFDVbpSKLFCr5ARHGcaoMYXRJIqi/s4wYj/cYs5SWbHA8VqpypajWcGmObVpfhCbg9qquZoZkBI4GXrwzZA9wWixlKt/isTOcMs1gzerrwpjXWTfeXcoFxHXVOEW5DUW42PnohFhHqc6+JAnaGn3xFhD5DgqFIq6ENUIjFJqNbwdRiEc+WTNPgPQ8tHzl6tFmTzqsjgzGdhjM3crVgiOf0txhGm9duBObX96o8XZC3t9wpwszwpdLYtJRdcwYNOyowshpq23b5tqstbAbNR1tWpk1kuafXLoV5XtPfpMpBv6RaYwmBEBQg49QJCHO8MIuvnHlZZlJ6vHSmkjMT+u9Dme6LSXFNtwdP/uGNSPv9oPjLiwFIeygezbYAwPg7Xc1z1uRLLav94a3v0eDSN+GUcO5lEnVfHAP7whc6tAva1dvXDWVTCC8+mxGAZHu8KIQVNORJ7nZ+tnz1+5XB75V0+lek22YjWv0hniYoOfthWRvlJJP4PRer0Qnys+lJ1IoxpeHISxsSOSqNhyx6sYj5r33+D4KCtltQvCPKbUu/7S1C0JGOnvOPCt5f9UfP4ljOISF7AdRgyazzBPW67P1gxPsfewcIYjlLNk2mGkpAYpMP3+e5fi6FAwMif8e0tq8HjxvWQySdCfJRF6WngpY8Mibaiy2p9pYcOLnUtUdJWLI8I8svBGWacO/Qq8ak+ovrBf0LV4aChTtedquqgFu8IohA9DjAq2JWv8fUc4gpX+KW/YICa7x2bayXK8hYA8EIx+/XrqRwGj9fxJTWL5gC2Ubb+lXhuqrHZlFDYt2mOV5iGUefzBfCV7ssC+tigIhaNYnB3ilW+CWUTAKLRhlO8CIxaOkpc1Co9ib2WR2YE0pBUj6y73nB+5YEI+YIIinRXHBqNvyieL9xqN2ONTwSla4CHFgA3pbSo81m5HtzQjnZtEtj0PGepyRzOPKqs1e9cNShv95NHrM4MRb7ED3mQHygMkFt/HlMGGJozAon9QhhHrOBWKXrh25LHkyzfVPzE4HoWurObzgyVhrqf8teOE0avojRbyNV2vWNc1HklXCCnxz9NRFmks3SNDfeFdkO2QDoqOAuymhlXMYybkkvpx1bJmKtnEMuviZ4c8vDxEhf9EQ1J0yzDKiMqMwIiFoxf5Kz+LdZEHmzvqcnpi5PsRT535SVLtBslBP921OPpaG37W/6K0dN1GtyPOakvBCHXR0AxkRwSV84L06g3BopSKo6aWbvXdNgDqUQc8FOVLwVSLTfZHMrOiAVMZhFEedlllnIYiWhgwwnAEiiOuGrFmIl32C2RyJhsBRCYnnzcxQz+nODq0pP/N7/a1wz9LXkhiA+ZRekHCacMgnYwKpamdEEm2cBdpnJPDl01Z1fSNwQBlHmmz73rUhFPV1itGsfxOmVHsAlYkjOADEHAeQ/hzURiJcLReCgapzGWPyGEaX/zVjWIQVRzdH3vD/+3eGn7+wMR2tgLVpxRAKpH2IEY3lo9KvNZRRHbjvK7rZVHV/LgL8wiD2XppvguX2T94yY9bYJQhgZDRlgkkAQJGfbv3gj8OyG2K+Sf21yAUPSwWz3NzldYnh2kkjKQY5H0VjE5mO4ajQ/NGb/YJoxk2wIJCAjobVbWqzCzNy8p3nq7wrnpApvxDstmlm/3rWu2Kwa5mpriOQEewNRxpj4ExabwTb8DiRmZbGEccbhO9ItDn4IOJyEIKs81wNNFJjR+oSZEZqoZRsOH/H09ttE9Jv4jXn1TzAhQStmn5OBqlaKzJ3zQtOroufbUWFkdESUuZRyIz4objNXItUjCPPvor5ZthRDwGUoUiXpsLLqAEI4CQhBG/s8OZIzA8elwsWKO2MqqjKR8Ksx6xGPHQNcDpcOJVWa6PjhJG37ii0T5h5M2W2LEJCokv04pXPNPlSl+9kkNtvUajSV8Gi+FGmZFkHRPzUlsj8T6gxet0SzgKNDjJyBcQz6EY2gJuOD8QyPTGH49nAJ34QXCQS7NZywOtR+BDPHTBdhrvDJQIYXiMMPrDX18RRt6siczueiEoJKi0g2hc0JH6DKvnmLwil5eWBDJUNTZlHrXMSBHgSbtBf5gAY1nhVD0bWS1wnAYZcDIpN3o43ibmECe50Fppu5daLvLAQGVwQmMWfkV7mk8Fl7BBuJ9qjWRyjEntN6/T8GvuRSe2ppeM0RxCOIwktlG2N9ORpaey0merxibMY5c0+6SPaxDmsYvPu/K8cDOO/BLQpoJXCPjUbRAbZDP3lxUFlV4RWCLTATBamNYQffZJyqIoS7DySiuiEc7VLnYLRwf3ftw/jMgLy3UUhWyVfflpFrOMd2rP6E/qa1xf1luCk46xJm+WmEciM6JzFKXtv5WJ5CdAZdupejb2Mfzc8o8UvMJYfBnEUaa0blKBp6zW1Ub/2ZO3OJubWU1dfM+61OxoVvIiGRieWrfH3vDvtVPTsWFFKSQpYguJlDYk27PcQOzq/Krgf9YTUcbU9RPm0Wj2b8oCkbqEwQfxvNo2HAVmWusnMqFi9T3IiGRS3G/kTgPqWrLa6F96xdyiIFOpXiMWTHK90z3ix6T3/v+AN9p/NPI8PWMDjjcCEduEv2dyzvXRm10gq/hP46IRL59rMhdFAkaVzGOrLBCpySq+xp/XSuwjo/YDRCTGCDezq29twScrKV6D62slIhyBauSB74pUGB5VbzUGJYlk7Rhh9JfXh9Fs9jSnFBIf+kOdqSmkGhKQQzWgV2EFCcgP4mNLmMdUNfuS8LZEj1cyScnntUte5q7jNUpEMkmorBaJqiwzCymp5FQ4kipIfyU21yq9sEhxNKxyOuK94axzjJ3aAWAEL4WajbwUPCJEiXEkVn0gL4wahxc5V7LGFkJawjxaMiPMard1i3nMO/x5eOLG3xSQuIgkZG1kKncQqqpvBNZA+ucIHIHH8SLR6v4npwiyG3apGOTe6a2llbbFUcPo968HIzIbWc8ZZDJTMDJWMAJ3Y/r3W/ztj/X1hgvStlsyI8hqtZtL+oPElBSoVViNWnlt5DTbDi32Mk+0GVyEV2+8lBVJ7B9Pqhp8LhsJ5FnC3Ze6et7hVzkdxY7a6ThY7Fc5Eup66KE/JLY4NN4j7XT027etwiqVMR00gVjSiWZgyYwY4BoW8xiS511bwo1qIEWB75nHcngNFFi+j/bK0gDOgcJKGlRFcAYiWc5XJfEayEF99g1ElRaYLb/9Y33eqTg6tFDkzWvCSA/910AhpUbwvqDbasro6BZrnhCnaveEeczMqUfp0ZNvvJQjdTa45O3wYM3+VMUjVtjFxFVpagQQWGiQjFFsOrCJckesN0x5khsZOMnK1212IY6+Vu/H5dL9++JshBehtNS91zw2nH64bBosYlu+6yw5kQVHS2bUKg/jNPNogzs4+fkPqL4lhOWeFAKsoNJKsPF7hrW1FfSlT0uzOGK5cKR0ViyKmTU2CDJB/RhFaZ8YixwhjEwR7d4WjJ5dZeFMU0jrTwU18VNDfjkOaUC3VrTUF/xBwqhp+Oxhs9+os2x23rQyHDKPAWefGol744eVu7Z8bUM8EufRA8vbqk+jW8rHF4/YqC3M4mgMCM7H2TgXhEe/csU61iV456ij0bf7lPSv3NvneugPTyAH6N/RtaK33LG/ruWLgez4PXp9A5lH2NZOLm89U0prMY/tCgYn99WkdfsDXUqLqNS3j/W/FkJ0dMYF2RZzFMNUJRYoAfHARzePjcPZDf/7mIYhe9wMmbsT22ypKKSlPvE7JmUkhpgrItH38VOvmUfd7PNhQdL0OpclzSOvy29MatIETeTd393dbyy5aUAawxmdcclmL2WxNWUpCw6EpJEX6x0R41CWfyJuPcrVWPiPTlU4ymS230EBeWihyH43Q5yJjQ79gUIKLeOZwqWrxlaNxC8tM1Ij2d6loXbzKUNZczr48aWfv52efl9sG9puLZxwOAszQ99TU/7CZI7AAEeqSiIBo2lFSx/RqVrzlzmaXVQZ15tD/zVsaI/MLbSO98fyV0Q99tQlMyKT/V5J85h3uBKubnz/AZ1GDE/Z4zt6X/G/e4RZUMgDIWiWvYAxkFEchcBV9qUujWNq5Jy+Kjok28UQ4uu1giAzfVfHRmcjMHz4qPJ/7L1xifInJRPYWnkGomdpSmYkmceOvbyji+PvAUan8a5pbafHFEZrkM6W1qJRyidwkYg2fIziGpuR0munjv/gbmv72+FHFtdN5Hd0YvM5D5dgOLozDBytVu3EJTOiM7iem3m88SqmVoH3HUcRpLX0y8GoW3jPj1IGaRCQUcqnfHwYIgwxJo5wk9pWorVfphXEk4JRVWLTSAN5bZY3Mf+rE8ZX571bPSwb2R93wjxel3VGbdmMCYaystln3d7fBYxO/+F9SRxBvMG5mslXBZg+85gHzL6r+PGzSU5d2ZrHB6NXGc0qVwSxuuUotNXQn1NI8TscCCivvXPSwNctvtDaKSps1SMyj5Kh7FUxjz4Goy+Oo9iL8ffzjW8+iL0kCrthlAjuKa9ihgQ7292FODq4S//eRrPJsw5In9wdmx76r8BV5B3WRhI8jcI779V6pgBSvUnGgiNyQrcNVUuNCEPZKq1cqMLj/vSU4ujL1Uesyl4p7sgYhwwCU1hUyQz5esaf/DJ3+Httop3dkNhw6L9uv79XNPYQ8lTHS+SiR4t2/E6ZEc9qnfZNq4J5vK2Yyea82Sc4KsyB8f/0GKmDff9h79qW20aOaJ6S2jynUq6tSl7yD/sLQ9IAuARB4kqRIilS0I2yTMmWLG1ScVwrl71VyX5xMDMApmcwg4FIi4Al4WktriQKPJjuPn369K0oOXJO+v1+vqhrpdSCtJgEoHlCkV1UakY7jFPhVklgA01/eGLZfH1uUBgtOeJZ8NDm5CG4dPsE/NaVxf4AHXS468LNnIe3v45y8uhScRZyWpBjFYxWqUvGc5wMMWh39VIb2FjT/+0x6IYYgllWrqMVZ4qkl8A82irmMSv2wXWICgu0W4v5yVZh7VKR33Oy/QMVjGz1KNuTL/iNtA7/qA9s+UDkfXa7fb5AH4sw2ivIjPirmzGPPmEeQy7QQL0xAAAgAElEQVTfOILV3k2ncF3c4MB6ktFUS+cEv+/z5RZhTQOj31W1WB9Y99nN7vA/JozaoxjF17rABnsjvWxUDSTFtCSDxJEgMwrDwq+HzCNf7E+5am/dkVwXd3Eu2qANreQLbokEYK4Ja9dF6tOZ91G2WG6uGiLqg5fNxgW1n3YT1Mi5YHKB7TrWNP3JhLaPuCNkJPKPQGZkmKaRvMQrRDLmMT20lDKjPij2hWv/MAsi8cHhPs2ZVD4Sy69I1WbzaVi7FoPqMq/VlmWD+oNWq+Ic/1PtqRlyCkkR2EDT/xJb83UBjsLs5wyKMiMS+gLR+iHIhxHxl4cq5nGKVutO2bXe389Tp/WdoMxmEdZFChglMTUirX4RRkmFEJ8uWovTHt4DkTZqPyg6/OnLZoMrtR3AqG0llTsLbOJ2n0Jge/2bfWCHaUQEVrKMf2Qyo9z6IZRpHhdU9VYiM7rqPODCB1JvWkiRsNOOHEbLOZp07UJTbYCfg1TzdkSMnRWzaIMHjKo9VWMaQA52JxyF9Ftc3vR//TZIacShCe4PgxEo9tlt9IoyI3poWWqZ0UHnYdcVLr3PIZKW0ySZuxFg5JxkrHUCYw8PPQowmpI8f4EFl0e4qzaVnUZs9qqKq0gDemqPDaMk9sQwsL29ld+Kj5BCogI0g1mmexmMgMwIOLH7XcA8Lrlpa3mxLzKP1YBEPkz3ZOo4C8cZ9JOTaLXf4WCUpT3myp54JO76bwUY5T3+E9rjn8qSn7NW02G0s4KfiRdt5LNM+14e2FAvp5BwCkWXxhaEa5x18URi/RCltRA9tEKNzEgdw/bzi8uXDrnP8wDHRQ5Gfm5N+Y/scLy95uMqUxw5eFRS2uIHSdxZ01LsHXb4BUvPbsBRSIqKDX2GSDO7Mv0jlBlBdmkmZx5VM0ULCfPIw4iZ4BTLuJsDfN1d0RSdgxESYdSN0S3vJCrqHx1Z8uM8SCnyVK0gCs6wI643oghsoOmP5bWjIow4mRFkl7y82D8DMiNDLTO60wSwvKbUJuLlMIILTCh0mBp7WgVGTtOC2g612EWD4SHfG1EENuaCjCmkGacFWYoyI4n1Qxnz6OiZR6ErQiLheksY8ZK5BEZkNqTPZkOkOBFhdPACI0Yh3eoD2yXsjdhDUIA5BZlR+glFQfa/DTPmkR5PQRWZkSaq3XS2hREvMEgn1Vqng9PUmkeGEzBLuWhaM6RmGOHJM9AbUVVsDGp4QjvkYCTIjLCDfwD3OvDMo6cq9qeczEhxpcfD/vYwgnZNCYyAhdIcp/0SGPUXLQFG7nPt8Mt6piY0tVNRkT6bG3mHUOYGimEkyozEgWsvBYtDmUdTLTMqS3j2Dw8PL4iIDffTOuur5N9X6y1gBK0tcFq9SHGyoFP8CxFGnN3Jl/pOoz83izfioxDsjfQ0k/73OYWEYVSUGQkXzzyOKsuMuJyIvqfe4Zp89jd3WXC72BxG8FwcpE5IPmadYqeY/LiiTKWZHf4fayj4wQ2NoLz27Udd0x9TSJlSRJAZDUVD/4x5TNsl0QNkRrDlkQEv5kWJ8dXmMAL8FS0kBxisPbqvQAxq/nm6B6uhKXZB0r/704hSSKA3oqrY8sCG5SWYQpqgT4x57IZJRmREwtmUyoxa1FpNOVM0V6fNF6W2Zlebw4gNFeQByymt6P3+4GyvmQX/H/5Ye1AjT2ZcKbBxFJJFKKCAFWTJlwLh9mXMI22XlMmMlIdRr1zyvL8RjDzTNEd5ueZIVJIqnPjnp8sX3kgZ2GwUXeoCG3BBxjXdzECMeaTWDxEwUW8XBhxnG8iMLjTK+ZvNTqMYv/OsXDuSeHGX0NS+4zRTKPLXXSx7KN9v1j2OVx+1gS1r+t8TCslkXtfM+iFUah6HaAOZ0aEGRr0NYDQyRgEyQyNMy7WWAkaqKf3BWYUh/icvW1Ok2fExpJBUgQ30RnomYB4FuX/WGFmAdomq2G+VyYy0SxUeDCNyBtHwalsxSNL2FntfuBb+L98bjHanxZZfSWZjd4ecvFYV2HqsN/IvdBywYUYkdkEE5rFEZuSqi/2Dbw4jmOcb2NGSnJi/ErHbm/6/gS5tUg6j5nX464aRTVVpfG9EEdhY0x+rkGxPKHtY281K+wdpu8TeSGb07WHED0pZ9GDcc5H/dfbf5D0OvhBX5rIcetA49eMOl4QqYWRZk2yltRVxgc3VNf1zCgmyeaGUedxQZnSnQZG71Wk0Ju9r2jqK0Nej1Nl4oBVbD1602KJYJCCMYBym7tW8vFZlhcSa/phColP6ERiwpT86ZR6nBKPKYn+vXGZ0pYHR3YNhBNogcTqocDbPc7XFz8zSWBW1nOZNhtQKI+pRbJp4ksM3ZL2Rz7qmPw5sPqzmZ12BeaTtEk5m5FaXGa01SxUuHl6pWcK5+U/bRqsklA36506LNvvnJblRPK1ksL7TntoOrSCKMEqew5gM2idZDBsJwvLaz9rBWpZD4Qltg0Y1ezbqslZdLzM8Liv2tTKj8or/eBMWWxiUeoXShcVknP/XN+ioBCcx7pacN04o8kN9p5GVHx34xaRmCWXyWpV5rc9RSPawzclDROZRKTNydTKjdZkeQ0V+a+jHEB9xcTa68gr5prvYy3iI2wRLKpPQmLbc+o2TrdXYmo1y0T15MWQOWLy8VhXY8qY/2aE9En9fHwi1rS1kRmVNtU1bs8kzk6MogRH28J5mCP9fgn9XgZOpznCkOQX/33YEo5D9pSP8nxb4y3l5rapiy3oj92SH9gy2QYSlDiavoK8qM9Jl2TcbC0U84Nf9ihqnuSlO8OrslRwnc87+CL3wRiQnznnCbowmVsAZ6s+49Oedtul/ySgkyDx+JRlXuJHMSIujmy1ka+DKYOQShDtoxb6Ft4FwxJ/YcL3RTnIjE0yX0alqTy2vVQY2Tl47BjKjI8Y8dpUyo4oDjlcPRNFGMIoinPh8sdFp6srHnzk9R1jM1zyX/lpgFOSnUdcaJ0HM9srktaqKDTT9A2b0yDOPxgYyIz2ODjvfFkYkpB2do+go9Qh1kQL9TgUp9rOB0ZgEMc8wM2IwMiTyWn1gu3xdmNDm18nyBiJn1WRGWhxdbSPp71qWNSzCyJ//jFZ78lVXYI/ktAJtVAdvVAuMkoTIC+kNNDF3GKHCRj3c9/+smz9ivZHX7ymFJGgegw1kRlocXW01GTLMTZogjDAPQOyNpE4Q35lL/870RiTWRDPcBhnhhoUVF+T5uDcCUOLqJv3phDa/TtZTMY9nFeYWOUvayijSBzUbxcWg1vYmEfFZ/ySDUU/YsP5L81Lsn3aw3bFwGiWnRGTBV0eFYSFRXvtO2/THFBLPPG4kM9LwR7pvLG+G2MieIDtC9kiAEWbwsRXg79JeSN4IrGL9+Gwk/ckDGbIsaEa1Z/K+26V2sJatPsYUElwnO1JMnpbLjKQ4ymojX5tRlcEIUqEjAUZY0+YvVCx1thY8qkBi13Ia1QCjGRyj9ug5hFBX8q2zCoGNuSDjtS6QeYy+nZtR2hepkJdX1RvNRBiRM3pKf49kmwM16H7TON5IJun3dgEjC3QDyIdtkK9Jvxf3Rq61gS1r+n/k1skaKubx5MHWahmOKlR3m8OIvL5S8kL+aUXa6JkU/BP+38lJbwZItu+KFDZmlcB2/D5dnrgEzOOGMiMVjm5QpYSqDEajsqBGn5oPJZXYvBpt9GRXz/Aw8oX4ZQD5a+APJVXdrbZiI70RN7U5tskvnKlkRudVmUfhuqmUlpem2BPhoxZh1Pb+gxc5qJTYyyoS2voXYe2k4B/CoswyJuTQiMKuFGJFea0qsL27/8xZq20uM9ruKoVR7iaSztQVYJRUHMemCidutR2hNafYO2rNsnb+KABxhzZEZAUblddqAtsbZPfydbKhWOw/SGb0iDDKcJRZEMpg9AGZ0r/QPc02hhyjBrHYdUn6PSqZHhIM2bPRBAVed2QT+1gvl1OLvRHXfa+zQuIGHEtkRujwMS8N/YjLMUbZy2B0t19EkXtyRkoEurmo16jcqC71Y4y8toUPC3s8ZO1+E99cS3UL/o4OgLxWMX8EmcdIJTPqoce+NCx2ABo/Uhh11iIvtGDFAdIu5WvCDP+fdgAjA/nJ4RzPhpxqZIjv5ZgzeOQ0AVxvRBrYzgHzWCIzqhtG7XFbAyNRBR7zg9n2C4xS4KDY6LL6P0ypbUs90uajISevlQU2wDzyxf4pJzOqHUZtPYw6+6vC81Fx0wN6LqZ93Sj33oOKWgwjU7EabYRzJl5eWwhsJ9VkRt8HjAhNVXgMvlYq1GrJjXbfDAkECxna3fcwjx0hTxHTxgUKSQhscKkDX+yfiZZ33wOMoK4gLxAqddSeybKHIeeJTvMYczyOcFokrfdpTKNkAZTX8oENrpOdqGVGtcPIIjZZFWDUWdPCvn/GK2i/Cy3248MoKA6KxCmXoqr3w/zrvLz2UoxclHm0pGVOnqLWfBrF4DEqhRE5kPyB+PajRk6G/GXXsjVfOIza3thE/iQkn/9E+hNsIGrj5LXXPa5nlq6TtdUyo7phlNlkjSrBiGRITNA/qJZhPwvTPuHEyZls7ACqMmLn2v8e7I1kVkiQeQxVMqNTVDOM8Fma0j6Ux9bBKCnZ3ORJWMKQ/AIjvheSpEkzek9jE/P/WAJryBNsQ9ROMgrpkjGPdJ1st0RmVDOMOJusajDq/J+9a+uNG7fCj0H73Bbo9gfs477tX2AmkMRatjUSSVmy5ZscNw0CI8BuGqAIkCcv+pvLyyFFSpyxZqSRxjPRi+G5aUR9cy7f+c7hu/taakSM2OgE7WGmNgOMtDVKiWSyQ9UbRBmKKy+Mko6kzZHXihl/9mg1N9l3mMcwkodT+1cPRXbaR4a8rP+YrH4wevqqW9Vue4mNjoU3qlVSn3AQ1WKXGB0rSSsSeI1Ru23Eldf+ZraTFZ+UrJEZBUbh1BwNJeoaim1ftsGYrD4wEhPei4gJGe1VT5+2DyLa3WdqlTRHRQZMNjbWqUDIVwvpEATwKcax/cdpcCSrZUazw8gek5X0gtFnaCwP+Dv/+AEjl24MU74YZdKSH+X+FfAYIyUUBHntbw7zGK2WGc0PI0v+SPtkaoI5AsKfB4RZL+nj0fTwixGspr9IOLnEukW4nzGCtEc4thOznWzRlhl9bDGPs8OoOyZrHYwuT1DdDN1J/vuFu/J/oh+xkXnAdNwrJyf+SUN7fV80RqY24moe8zUyo32AkcKRAcdaGPHYOnR+QRGr43jvYDTbZg+x84DozwpDvTxllzPCKz9ZyGtrVTO76yMz2gmM8o1g5BmT5YeRiK07CQdlaD9hNEcPf8t14ebeWPoRL+Q6jq3k7vGuYR6D9TIjFsjDuRdEPuQE5oNe9vKYrDrtUZq9785ZUYtZ76dT+3X62KjVkxZBJbUm1PNetv7DeXoX30rmMV0jM5qKeexV4ccvV/iFKar8Vhi/DKSjqPBzGNnXKeW0YUAjXyCdohUCJIdCyq6AeSRzyoxGFIrc2ylIlwEhe16anWhon7VqaejzZFbYVL348aI2cip5mHllRqPBaI0p6gekI+nhN+I0XK0DkdANxX1OIOb+VYs1PUWnewSjxDsmy4LRl7WmqA+QjkP9yFN8oo0NWgMi7qNq3OsMQl5brJYZnaF9ghHyjckyl/I/9H7tmvQB0hzT1maAUYJ0T1GcLtaiKO17Dm7WQjavzKivU/OPydKZ50n8pe9FrwTS8cx+FCPRC7150XAUSXntqmT/Cu0NjHg+UYYojD1jshZQaCw2WNmkqo+YxZYpVUgzxMIqCCK8ghGqo03OgsOZZUY9YGQPEexOFLEKjf2v2pf+T+vU5puLzX93jnAH+9L4TWyRUQh4ZUb/vpnw2Ha+kUg3WL756uKA7UEP/zx7hvCrF/0geVQEVYjchiNJ+mf2QLa+R8r8MqNP7949XYrj07vdH1vCiF9xv9Dac9Bw73ijiayRPTSUJ2zuhYvRWGSbJcVlN9m/RvWNbfpubu7vL5/mgZFdfqMOjMJ2GXbDHxDZn9ho2t0drUdxbXc5SjIp3/JcqlfJyIwuHiFLq0NxNOXxk9/vL2cYTLNyTJbsaBhyJFaQNG+F/69T9fB3Hq0aslr+rgje/ncZN5rHC1EDYaRwgvgoCgI1QKj+/fNQq/TpXlq65dfLQWOy4vcBHr7OxrfND6PprBG1iq66WySvxKqSZNDpuDH7eAd7ANfVijg9pZW8o+8/DwDRpdUGvbzcZExW7I7JGnjFbQLgaBJ+VRKR2S2/oaGIDEJFH7Jq8JLmNWJnki4q11emCvHzrb9uGXh/uhHTdaT3TQX83z91YGRqeWy5BHsjeQk9bE3BKIxGXGxhkuadtvb3aTdQF1ra2M0xwmCUFRUh+vlFhl4ONzAV1uFmmzDpc+2UA4saLT+5MLp75DgriyiK8iBuNma2JmEkVfx+aFDkyV2OpMKv7yGpIXaJMpRHUTLmKVG2WnzbTXJuPl9ueNy3bV0Sq+HrBka3JzbOxGmAw9AP4mBAkr+Gzz+OURDOMyq0Tl8Sp22+lqxvWbeXEMx3dPbKidHyqYHRVZv64l8psyO1ItuctN5DGM2mfrSfCXlgFATF+FdO1opvO0CSLnXNwcMt+y/z9B4IHN0YGD12e+5wKcekQgwzdlC0cxjt335qcL3WGCI28s8SZ2ijTxTV8jVyA93lhFXjQJJ5LwkzdA8wuvbhbFHqO5zvDETTW6PZhCImDkan37+fffv+uBzGFXnjzHLT1Y/RagOmFVJgNkMTd2FahkHenLV+kjC6brZowlFhiCss90eRumGWLxaHAaM/zQkjmqH6/KFhm2s3cBh6VKjY4j2rCnnGtjFpjKhRuECRzGCiRHIu9qOpK6dgcYEZirhbkyCii8VBwehv88CI37Jrqwr/9u3DKUIjrm2ItnAZIgiO/FdQWpQpzkC+KLjEkkYim6/0LTzhMLoyjQhi2khYiepzRuF7sd2CaPLYaK7NHpRzsIvwppWMzgsjWdotvExpBH+pSgzUw7EOpwrzNkGh3hrGimhtvmg7oOoerxWfv9qE3y6G/GMqGFGnb8NSKabzwkh6qS7dpEdPGmOUwmsNp5DrHKySwxqI/rE0yjsKFoqhaLE4bBhNpsXOurZIpTcMjwajLUNYWneD/RBR6682RqmNes0vSOlcbC6T2qsQbxu0vYZMbYaEv2wE989nt87mQtXOLGDfI63bKroErA50+2p7Etqn0BUI2Z2SamiRrmfcPIXcExi92TfeKDeC+yvZQPbHN6uUORJ/RLcHZAdHOtsn8jO1h0sVuAq1jyBGmYFR4KZ3SRCkahmqHdqKma3RDBX+EFzaw0fBHC3t0R/XPQthO13LNo4yQz0mi2aLEyjkQBCmyzk8BNKOGTaxoHpMCnylVRPkX3nCP3kxJILu+ocY1QJPD+c1Wt4Z4XSyE+huiiNiG8/YggXW41BKFX0BjPTGJ6TpZVQbVPAAiQTJAcNorlEQBLp/lmj5YGrhS2OOglHOydAQltjBUQlBsZrxXuhnAD8qtsYMbBQz9xCrFnPz+gOH0eROLVND0M6tLqCHWvu1D/269l86yMCP4TjS31mbHwiwY8Cn7vyNROdmGoNPyw3xKKhJFVhRE66Vh+vUfvp18rnYS4imbx2ZIMjw6zG8WrV5k1uX2cqduw8BNtad06EmS1VPBkvBcpUNipCb4Cu6AI+uiTnOEDtQPu3abmwVtumjHjs8nMrGI/CYha7x6ZBaBdgaVFEzXzBgiAEx3Yw7jRFYIyM5pwqAh5epzePUQml3nmt7vufbt3f6//MRqKNRFhK0rtqnQaBdGiay8thNwxSJN4P3gj0IKRTiitGosalhtF/N10zi5YMz+VxaJzVj79sIizDKQnK3RByfVljJvxhsSjpEYqKtIBVONVb/8DArKwnT1dsQ5UdgjXbfp6ZkXeeuTxO4+giziIYvAh4ljOX3PxfwsX2apocEg53UbUQQ+O5Jpt6poiI1qZmZyHxxWDCaSdKvYPTYrqrdQsf08xjrHI9S/6Si3grmB3wapO+qPMLDJ1dsjYzHK+W/OphOozxqu70fMBoEI6zIx1P0zYXRM2iYR4FR5YgLcR6U5TY1X5536f2WwLRAaARdvqXDdqcZZHF6lHfcrcKmo1V7JofRmz/v02YPAKPrLoxq4LFHII5EEp5pNX7cbBi0qXOskZ5hCuMqmUIBSEVSWy4ZZU34U2jr1EoYQUR72An/NEIRHRt9b8PoFGKkERbBM8tef4UoD1ZN5vKyR07JDFgjHSEJVUim6q55aUr7JsUXzXJpK2qPFwcPo2lC7FjSjv+yd2JQofUpNOYM/70Wnq4yZT70jqQo7sNOYar9FMREcIf05IoYUUk+yo08amLCb6oD7RBllhWMWHeQ08HAaGoWm8jM/rad8GtcxcOZQ3tjPkYxzomSNEZOp3f40h2NSDNcD+qwcCUQwcusK5KtvygOMDBCWp3E30OEGJJ/AwXJsMc5Xy1vZMFoGqeWKwCduPQjD5auVGhUjxIZuUODEn7bk7Jln9YrLZtNXsSHAAcJ2T9kAQUQRxApASOkTZUKtMW+jChWYy52q+SfN1P76S9TS/oVX31tb+khYXWrfNpgktdsHFLbkX210aRNcfdrkoudZGMxXBBiGlXV1/cJ0jatEQGo6dnxDAJtjd6S4sWrhtEmmdqbqYQiZ86eHtrJPWfDfVrk2QypyOypJVFUMGRPOW8DkdimQ+wBAODOJFLAe+kyCcRCsDF8E34z7WFpOuqYix8sNlwmU+bnQ7cWcjVCKsMTpCoI7N9+2gRFehsFTBrpfQdFsTudWlTrc4sdh+uBMomOhaiKwiEYhy5tu8H2UGE0l4g2lmHQlT3o8wFESPEI9f2g5Rdtf9awkHKfbbwCRe3mWaIyd3WDEhiYxjQVScxV4jxg3Hul4h2lNkr4KGD0y9TWiP9uT5U5urJ0IteqLjuCGEf6nMQ4LNr4M8fGULSivTL2pOVEokHcIDvdk45Px0IhCkwQHxfN6Ih8ceAwmm28ei21Ih/QyV1jjGSAHY5B8qplrNXADvuutyYGI7RitKmH3FEzl7nDKmXoLau0hQi+sY6+F9JGlQHNA1HOB2MU7FxdtC8w+mWOLYtPVV1NU5CP6oFv/UdbraONpEkLxBy3yqKzzYiPxFgdH4ySpoIRBaSi8GosVLVBK3KnDGXaDaf2UxQ+20RIBwwj335qP7+Zovkaq5z/AnYbNoJaMk7FSQXC7hbR1t3XKqHQm6qZEnykIJjBG0WPLGkTiHKcu1JqZ+5ThWQ85zBGxwMj/si1Yq7rO2WWRIHt+WJFzLsdjLCFI1Y0H5zAImNviG1G0Aj+uaJFaYYPc2fnGScJIx7SzlORaC5hMxijeXijWQYac89xoYTXokHtHIKkkXodUx2twEhHRiL3aQ0L33I3YkdgDxMdcYvUzvP9KmHT+HOdp0ST0hSV2GPljdRdkubo4YT/PYOukLFaHYPmlkZF3iX+aqoTtcjn0+BZ01rCrVo7XOZ5PTUiAYKyJPDhJd9SnvLKrJGPN/p5Ihhpc3Rbo+sM9LQjGaMXw1qS0UVa/Z+8a+mtWknCEosZTVashmgk2CDNDCt2/IXmSH5cHPDxM7ZwIHJICFmPRNAV6G5GI3R/8bi7q6q7fWwnjn3aDvECkpOHj+0vVV+9vuoJ92X47utaINgsi13UsFQRSRNv38dT8naRuFTSa8x/ANaoQwrCFozQHHEcQRpyLmOU3HQXgTR1rwXGPLVrOLpAfgnJNHOdJKDZNO7taPJazyyEFlod15k3sgajkMVnMAkCw7MzGSNYLRqJ5E2WdCX/fMd1y3SIV7V6ucWCJXg6DYqkmHVEkR72YKciHgyLDHu0k1/KqY2Y4bcUqW3UJP/r9x9nNEahXArplztFtFGPoNUPLuAANbNAoT3B5kaq7aeYBgiAHbkPBkbWK/wtczSnJE0RC0+Tx0Nq+uNhJMor8ioiPUOaYFHfqO1rwhD7nyZaK4wsOTXNHM1njECxM231FeVTYSRelcIisu7rA42WcIEf0h5favQnPcCA36K8umGO5jBGrlwK2UaRtmHhto8Ay61BpV6VkCjFvxFDVaNAGCun/fhgMLu0X5hdhUr/v+xZI8MczWGMHCDX5NF4FjobOVwktfeg+SOCB1IoGIF9ccCBCbg4uzAye7cfHIxs7gzB3BE//jtL7ywoBssiGgRpybhth1BIqUFztgQz52LaCO0L2CvxKVyfvoYJXnoQMPrbsjCi3BHvqJ1e2oeWaD5cVJeFasVFoaHbOkbwVsxNi5gmQBJuoRztWhLN3OBrXDvEi35ZGB2scoG6bo6OZrjdUMbYWe+Xj4IRznWIBmz4OGEKLLj2XfdaHhgtuR7dl19Ox8HouTd83K9IzV7eSN7sE+w3mn7lfVGRPwpGERJyvyghHItkfxsIWsuBD2wEEJcWgpjxJioz19F93u1h9H14BeD2vsHIpjWKUanvtJ4e0vQG12xUnX2nAVPUTgoCS2NyEs8rqfyRanlH7Ulmm3EwejIMo2K9MFquiZae2LlaFzK5873syTOGYx8C25m7lwjNcERfMHhcjCWV/Frv3qUZtdv+dRxcDsLoxdojteWsUaF6sbm68VR2VPRknoqR9L0ylmHx6kooS2xYIQsr15V7iUgyOzDPTeMgI9KPP4dQNGo/xDIB/6uFstiNS/tdV4KIJyaOetYej2+Hpu1VG1FdCXzIAuS7J0AFI3M8P6UCzAhWdjgEo3wNMDpYpVNzUXsW09hTV7J0K6qX4yffuKAMn/7wqlhMtoWAn50T0GQsqzPVf8SHCfCBjmBln/pRFB+sGEZLDV+Tr+G1kD9+f/cZFda9qafp8GpJdoffGlGDgCuXDmnJbDOVgOtDEjGFWxaeJ4ZRHHxHI5Kq1/0wGpeaXSZv9GoRGDUu7bNUxWLg235MHXWkuFt/7Y4BYFiUGQVI+Fl2pJAAACAASURBVP59zdttxBxltlHhPe3xrjVx7BGn9696YXS4ChitbzKEXNoZL4AFqCkysckrYPMqv4BCH3XP8gRSjNoAQuem0ol2w50a8u3kZBXDcSI7vamjkXMBy3Cjl0tQbHBpr8/FfbpAlj0t6E/nvX+EApw5SljiCkkSx+FyNTWmBmA3DUZyNFVUjOtaeDJH0mjzkBpF0KV9BAp5BnsepjWL+PWsvc84a4QhoMhcK9fl5ESwZQGEpI+zzR18Wn/q6MpfBYz+erAq7Uf59/sFamnyOMdukWksO5m1EorWBY0KGDu/YoHjeOrrDupCGtLHo31ab+pobAT7YAJ+3BL6nt+lE/4P7guZdgO8YZYejqNOGTN3zwS0Mi03fB04scoUz1KKNVNTR/m9gJF9buSDSxP8+ktDrXHG6PTNRJI85Eb4eNkYY9emRrBPjfSKU+rbz3TUFWQ9xgvHfZqeNFpFpPbUSsCPLo3z6/qYT80y0IT4PJFl95NsrpVVj3J56MsiclYonp4aRqpEzb5WjjIdP3ndmTr6ubkXMLK9M4RcmuDX7wS1ZigEeTStC7KXZEcZY844hCJM0Fmp3UUb3XmhZh98m6cR7NGWtTN1dHgvYGSdYjfP4z3x6zdArRn0ZU/doN6z2SVlLBjrYRT1iXRDV8LFoPNCBgTfRizfu4syc0fq6MNmLTC6daT2yAaMSiBCgl+/BWrdUIDjORrYwk6vWLDxRg6L90iRwJeReHpARDvSGBLp2mxuEo7zn19Xn36DprRveW/q6Fr9xLPqP5xHxtvv1+HaYGR7MiTEHbO82HBCG4vx47OJQX/Z8fRSdgfmjnF7RauvDOMTEuE2wnzMNdEWox60F202HX8Tl72bOoJezPynKfuV/Xy+Wmtkpd8ICTaHzg/a9NDcSPhoWv9aR8wfxneJ/1o+rcWQqGfbNbb2KYJdDhij52VnYM93d+2kjr6LK/jWRZq23mq5kQUYhbWsxZ4rT/Z6y++KoEmTxRJ3mW15l+Q4JhMxAAOYUJE/w1VYhlHyVItIrzH6p9tbgv16uJM6esLb5Hq72Q5XYI06YPTURqRWsOwUPdkXKO4jTTqa3HWUts1ReKfhpYqmQiqdYKO1ycmXObpRQtvUz4zCcrjn+oP5+WVjiYa+v/JXGPA/spM3gh5s4tjHVA+5mGFerd1fX7C4dOSUTjTmt0S6FQIbR/UyqMb6EFgCVMkG9RojU6Siq4DW8mk3TIywy3wdWey2MI2FLHYELBsjfv6/0BI9m0OMvJ2CTFjzF76FoCgr01slFHJKVbu678JWfazGtqJ+skE9xujxNzb/4SxsjTqHr62UZh3ZYiSs0A/Br2UW+8tklyYNiWeebCuadlgN60LdW6wSSqjJOtVcG/lHh5JFnhb1hzcYoxdbto/j+yoC/iUmQzKZbRT5orcxcqTPs6irt8Wow1pE0c+E/wnTsuad1iHXXMuaj7rzSZqz0uMzKrZmOKJt2Kxk2Bi9yBizgaPF59QePbUEI0/GaGdvsHmHV0dO43k07toVkagOePoRa2Kb1A0+MNfl42d9A7VK1tgg2BjtK/miVKNj6Ol6jNHeUNREbI+X50a2s9jwfI6wE5sf76VLm+nyk1bOunR5n6KWUapYHQSXon8xGcoa+CbBJtYVYDVWwgV+MxViuo3RJ7a/I1k+UntpwOjATi92YzHeq761I1AVmal3sdXb7ze8iBsdZaRk0P2by3pOqbJBBsHGlBSWy1S072w03dluY5SwfR6HS+eN2sI0llr6c9k5K1h2fSx7jWaTbTWFZD12KWBEk9CFBFFd97U5J2qztfYpognhE5rRfjVojLy9osgwR2toFLE2NQujIe+wo/98xouvjBMWl3J/OmiA8hlGAaI06HFpvtmopgh2ZUT7GK4luKxoyBh93y+M9H7tFTTR2pvhp5pIcC5d2ozt+LmROBBl0EK8jUhuxmpAxKqwa/3eRs8GEcEuDYKd0BrQSDNKqMzWbYweX+0XRux/C+eNWsUQezP8UBN5je2zM3bjmzdSFBgynz9ohiByQ78XRRjO+2a5FcMzfDklbZpko0kFdBujfM8o0gWQHsquWWIw59qS0Dl3/Zg3EqpYrgzwBYg8sZY4Gq7KgVHySF8NJ61LvbwGxohqtt1hWrVvGGnSNctwo1dmadYejLAmIpseo33ByKNqp0sgGkKRlg3KTULtd6UegVlng8Zo82HfKLp6tmyk9vdX1lv6WzURsfDa2dcJo5gSNl8RRFy1KIt6MVhvNCuECW01rWakHsHFUf9+tzE6uNq7Nfq2MIyW0370oSbSuLRs1hO6qsLLVbIDtzkC4dPkHuMo7uVFKhsERfzC9GHYQICpRweNUTpkjA73jiL2aVmntqD2YwOjH9CAPeuyejVxKFHkeLmI0NwihPfDVYt6c5c48YH7ZHIJm0y3UQg2YNaUIe8p7T/ZP4zi9RRDrKqtcVqxJcm+atbzlYpe7+gb+W6rwT9tvalko5kZjygQNs0ajUZQBsaW2b4Wuaf7hxF7vBSM/rIsjBoHoFHsGXe0aJ0i0U5TSBGz2jhX4nSlHnHiQ8mERKYvK7VTEXqSnj+HawswihaF0T9eLeTUmgd2QQH/xVRRGiNgN5IHUaad3QtaDs0vg1Y2y9V/CVqdli9T4VqgWzC/L4daWICRtyyMlrJGFcyr4bhsMp8xSlvVLFjaucnd9pq+KGsVZ9GSQSDWSmgjTrA5EopuOK3fK2j0K8NoqZZ+yhodm/vUZsoc7SjS8r0NgVM4Sbwzxl/ErewR4gPLsC31EIWqQjsV9vf3iJhuOnZz3UsY/fv2MLIW8LsQ7L89eT2LKI1m5dr8xE9qUL9Ld8h22n5XhW59EJIIlFaZBFwcpAb6JJVt1EIW5EaL5o1y2cTPB9Mu5hGlUUjYZet+7jhOu5nfiXdQhFxZ4aTSrY9q9C+176L8QtUbb0YWYPRi0YB/IW6Uyba10y32Pk4WpcHjlpLmadaxhha5ctEq6hOqCr28Bmiigeus1y8/tgCjpdKPSy57cCBl9CfbXqC40dE8FRG8oYPaagJEdboL7kgnOTkpYQV6WtM3t13REogBDZHt3lEUjIRR6OpHNMEadSiKWIKRD7uLPvPUURPsf5TJozicE0Ys6wGSmAlhHbVZRbAz3ZdhGxyaHfRppnSoskodx7e9wygZa430CYNsXqdmq8LvyGD/VHZkn7DgdLYd6sqplc3t6ZDGyqEr2vU7ymkGwW7LQWDp31QPoY0OyQC52z/Hvh4Lo2rsGoBbL3uwZY3QGJ3ADP9Wdh7NskSdRNF5VYwb+8LTqXYS94tNE1cmaWJDDqItBkkbHOEhBAMpC399/Uah9sPhdBgt0Cji0CyITB19rCU9+nMOc6QiNYfKltz9V66r7LgbdmZ3SiO8Vz7NaKb1TKZE7QSD3P7rnlH0YTOaYgcj1wAcjFn2YMMaxSgfovSNstnMkeZb+iRg6m7vo0RBixbhjvQvg/nBhTRowqLBp7HvGv8derHTkWsARmy+tgKjVIZpb1E3VCDq3VzmSDubH3SLJ/h9jscIxCK15grAj7v2co13E3ryYQGC/cZqVy/Gw8hvKbpNq6m9tE6xSxx1vNC38h1Lc+TPerbdIcO6V5C2FYjRABFUyqjkAXCCYbgCqdENe2VTS3HaLWAUgUJPoq0BiG7W7RkTqVmwRqFMYH+EPDZu5XsnB7Cdec+Wm5PzWdEP05bQNZEeCNBw+C1CalTDd+e3gtHm0kol5EYYpaUIMngLH4aPeSjnrliceHPkjexYo0KqhZ5rgyHcDsUykZTN7kJJ3yyoov+zd+6/bVtXHE+DLK6detAvq4N0DgxkyJx2aIENy1KsCLBfylCgJMtJJesVSXbYkFUbz4SgH1TIjQpHPzhAkS7/8MSneC/v5X3wIck5pwVaKZYcix+f8z2Pexjv45GYpmKP/aO4XV8a9dDS9QmjmZPlzBHCTRxG4d+qZq3t+efwOx2JaiPitrUcMPJiWjU4F+Kpo2N3sehRyhjZH6w2t3KFpTjRmFYOStglJBHrIdJokZ8xb09cz8cZxWGExXjS6rdGSwqj/Dv8bWdC5PuQwHb90H9dH6WljxFnhtdF/quhbdnyYnloLURN8HSnzcLoXg6lx3iMSlzv1pJJ+HM/7lhz+TlGYtqTJ28VxaWptCSMsDZsIJG8qBVUGT334wntlq1uK67g0JigZmPnKh9GGuf7tRJilEsVu+zWHn8M5WleVHvmrldP/N2kNpMcYf003+v4j33B7V0k/27Y83Su65QV6gZzQqGSjcquVvgwqjQ437CdVGLngVHLVdhPvRs9hM5fv3ElU0JxVJI7HeAn7lqwN8QMp/uBkwrSf1tBVVquSp28nhWLOtMdZbKd5uxI5cOoJSe1xOtGuSzt09zU/ikyQ+tEOe/5xPvVy3L0dbyXd5Bqohfb/Pzel9Zz2jonh+5yW5uhufXZNXgtc2EUgxF/TNUk6kZf5ayNNDclKylvUYx+9YNdsm1Z8/z8sNkV92iL9B79S3saqLxY9VC278vu1cfHzdmw6NuEXYNPf83Ra5UXo0P+XZLiGOU+0l9y9xqZyksiRt8lTNX8+YfSSUukP4en935e7z8fFKsbyknPjWS6EULINovtjgpp74ToqdwYSZahxOtGucxiexhFtNErN3VLiNFcflh9Y1L3Ovtap8b7dzwJx6xIgnYyd5K1suYRZP6MI+SYwU4zK+nuo9UL+WEkkKndzg2jSKbmSeyEGLUVw7miw5Ex9s+DlLQWq/YYkkZlJK93n6+VDxU/JpQuZiSEHHdksnVZrZEiRfWKmgVGTQlvlPeW/hOXn2PktKMzu/bKba61En2reuiy9mcXejX4FetpnXKZXjVCpZEbzCpz59Ys+QCZg4vXs1kxxjjckbOdIiVrP1AFMOLXRl0RjAiZ2vX8MrUfTDRVe66YTxJnajVF6UdcRH9mnA9MJTTD1tPm/mlulUjVaC6NavM/aGnN+dctrndVNwyqDwrZsMpx05PbaZWPKKPrNIxOMk34864beZ3ZYILWs9+9pw+T1I1KyoR2hWezWXM8IO84b8wdTqNEUC3mQL8wZhabH99GPK3lWkr66J4qhBH3PLhM+fFO/lVs92zRc2/Dui+w3YHat0mq2F2lyrziw7l3GhnG4FLXB1XihzjQ9YuLuffpC+ATGNehzVTuQXNWVsUwUs1EZSP+6cd8RvoVL9U/9g+o2Y1a//DsswQ9tUpDGbHjDv54aFmzfr8/91ZztyMBTsQdcQzeVZLf+eFA/F6znMVP2g+wtVIJvz8oYoc1//+emf7di39MsDCrpwyKSzedL9PsJaXoviqMUZYd/vwxagU52pyjp6/ePvn+f8E9sJO01DqKOVwCN9ZoEvaBfc4z5K+zoigGoxpPWKNOlG8J3Homh6BWMYPK4yv/53oTNNakY1qlrUxzJmjYnzopoB5+8pLTnybZeWTeV2Uw4ukN02Pyqh2+1hYlox9+eqoo9Rd+6v+yIV81OkGvZvZOaLwQypZYS8S1nYNMKIodomV2+U16MOBP+PO52cPcHWEV7MVgv7QzOkIu5qSqT6YzKzMndImGB6TMMOY9JSVbiDy9rcpixCoexVC0chjZvvWYRNFPCW6pduh1QXyP4NcNJ9ORlaJksqZjQvWwgVDGPU9eq0rVrmuqPEbx4yJxFPFv6c9to8iJ0iBw9EaRv/G1ppyGruQE/3j0cQo0We8vaZ//SLQlIl+I1FkKnnFOLYajw1j8hYZo89m2Nv9ZvsMGRV7+rsgLo1oj3AWxaL9s+tjgp8my+v33799P+ws86D1SzB3xNnRqwo2R84KaDCM6R4fxgK7i0r651quGHdLLNya2rzpBF2Qc/+tMKEDawEynxvjy8lLHR4LGQT8lOgY9MbwnkVbelF/iifojDtnFPDVLyRF7DDe3cotpHH1p3+n1xa9Ojvb8+EWD/WPEWAspGVnxVyKoUVp8M2Q68X3NS2/kqI6y5nVouf1q5VCEotdqChiR8zUmoAIj/bUct/S37KLqmWK6OrOXoLGPdUFcZ2Qal+TWlbFoXPCl1wEdgcidjKwi9i5D4Q6t/5cv8VP0m5oKRiSO2G5ua3vldj96Hr3rThO2e91EC2l6SKCyQrRY/WmEphFNiNMseGczGr8cJYTA6dipgMwr8O4+OuNLQHg2ipRNYYo2BBL+fDFKycpoF8RzRkO00rOgyVq0v/gMewFejXK/XxUdSxFaq8t3ZoPejBXHSD0yRSWXyB2M1hGjShtxBUOF4B1cw8JPbIepNBjoOuZ+3Hwfn3/sE0Q2b4eWryjocnqkpoiRfWdCMYpWMeFP9+3rxXhnhES7KsabObCBuWheGPaE42zWDw2MuCn+FM34p9GmfqSSzd2h5Z7hqD9QU8UorO35AjA/RrtriBHaBfHgOCM5oxmaePUj6f8QnzcyUMc2Jfs5ksguDsQmXlhrawb8UHJvW2sKUbSCVew07RC9rmPSNQ1TMKE8JA+hIRUCl8PLSI+NJLItwT2Wd+PLRQU1dYx8TcabDMROP647Rl2kC+JHqjH53AZytcfkEBUNgzrlIdZ7qeLKW2yP5V3hoxqJMXJiKfe1Wa1Z7HQN7YLEOiNPwwRfXiel75ifQTN+7CFeYhgV5Tq0nnXOROcRE2Pk7tVJBaP19kYl1DnEOSMvM7MoeRvRsK+hvaREclOG6NQL7ejGrpoZRqpA0Zc74V8/jPDBWSOGDcyXWKRIRHZgjMJRkPNbRckObQAAabpIdKp46fdTW7tMDT8LMmzEOCMsM3PlcykeI6xSRC4cOeeKCHJ9Kno9t8oScyGrgdGdda4bNbFAEueM8LTLoFYpI2/IKhz5f9CQObSGIoDro1JBXRWMaJnatXUPalgXJN4Z4dxcEmQx5TUTRuGIIrKFOrTkuHZeUFceo811l9j4WRBDoWgXryCIXOlq3NdSKkWUwlGQIeK1gFPxQTwkX2tuqauP0c3l7MXOqgvCcEZegm8xkneSl6mzCkcUkS3aEsHzNU3SR2eC0UbsoMj61o2O8KsW74yKKDd9KhEShSPH8ZAQ1iV+9ICju+oqYUS7gfrm5npjhK8P8XoS41jHcooyN2YNZJt8haNAZA/xbypxH2Y3rp3eV1cKo42N/avY4ce6IL7+pTojTNeMeRK1SOVbp34LD+JRRJBJ7CSwOWpLD/LlrI2IW/rXBiO8C+I7Dqp/wTqxOrsVsqBtxCwckafXxDu0ft6vyw+mL6f8+BCR2GuDUWR9CMMZ4Z1YnlZItEpg0Nu5lkIEcyx1p8F7BVVdE2+01h3+6PoQhjPC3I+FTuszRkXGzMJRkAlOosGurOZq3Bjd7rS6mtYtJ/NGS1sFkUYXJLI+hOWMMLE8olaAYjsos5iXjcgOzsjIOSTFaDc4kXLQLH+gGEXXh5gMLrBc3eBT2HgD14orE5jE98zdHfGN9KPHLM9r8hiRMrX1KD+WI26H6YwwtzLgaYVEq02xRcsJeWbgPecNyvPE6LdIC/iuLEZrPER7GFG5VVaQwkQOVytkUVbkGlIiN9akWiIZY9SVOQQXj9FXaDNkHTI1DS8Z+brE4k25+FohQoWjoBwwkNpynCdGwX0mT0uDU9Z+ZE6M1k8b1aLXkemMsIZ+P7oHpBgXqaYchSN6ZK0nvCtTyhgVPHTeOeBUOp7WrqeojdYBo+gSdbYzwhqzU75WSDTFN2LPAVTJwl2mQ5shRm5Iq9/GY1xHrm50cyn3U0uhC3JQFHZGmFSesE+FkIfdprEZ3pQ4vWb7MG11MCo4gxAHNeQK2fZzPEXLPxlS0lK0hqIbmLmKZWDQzVv74D/0hl4Ntnk9DvR96rFfHP3TgdLQcrMmA6MW4cyS+wEy1mRtc2/pz2gxDViuVmK0kWyPWcCaAsyotrG1v9w1WWXtnZb1v/Y/YJ7F1hcKzhjKO8zTHBCeTJKpbahgV9rcaW98mMnZsXQOGIFxZyi2wCYKj7Z8wp/DHYzAVsmaRPW06/goKYzyWtoHtkqmE1eRuoXtmjRG2MkQwOiqW5t45qTG7ofEB7XsO/xgq2ROJ+SXSP7mYLQjj9FDkNgflB2Qx0LYu0uEBkUAoytuFF4OmIuUNiDhB2NhdMrc6ra15DP8YCtkWxSM2sy7AGwseVAEbA0wqjOXBmwseaQfbA2C2i92M66cVsIPGH2g3ojjlfvQDAFLjtF23KDIQ/RGWMARYESWRty7H3cg4QeMRLXRtU1ozQJGiTGCTA0wEopqSx7pB7v6GKHeqAYYAUaCGBHqRoARYER95T50+MEyxgg6/IBRokyNWDeCDxowktFG4TP82WzpB7sKGDHO8CM9NcAIMEoh4YegBhgJSmw4GQIYpSCxST016PADRokxgoQfMJIMaqCNACPOTG0fJDZYVkENMAKMhLzRNmAEltgbicwbQcIPGIl5o2iHHxJ+wCjmldu8Cf8OYAQYiUpsOO4IGIm8ch8wAss24QeMAKMUMPoUFtMARiloIzjDDxjxZfzQmgXLTGKTMIKEHzCivnIbvBFYUoz4q9igjQCjVBJ+GOkHjKjeCAZFwDKT2IRzaoARYCSJEZyaBYySaKNrxHvNAkeAkQxGoI0AIz6NzbulfwcyNcCI/sqPbmxucmVqsAoCMIrD6CbfrWcAI8CIaoW9W3SM/oNgdAQYgVGkUWHvCxujTVJUQzDa2b1fgM8LjEjRHKPHDkYEjj6+9fifn4cwKhcgVQMjY/T13h2iN3IyfgSj64ARGAWjrcLeIxpGN2/8+dHn3yww+gyCGhjZGW19/dGjm9coBcgbt779u4/Rn3auX6/AJwZGwWiPjtHHt+787Zu/7PkY7f4VPjEwYkzb+vfet5tkjK7No9rjf/3Dx+iz650yfGJgZGn05Sef0jDatMXRH/+wt+9j1AFxBEaMaQ++/OT/7Zxpc9pIE8c5Ze5AKgpiAXMjAwZzGi9FEcOWXeU38I6iysVn2a/+dPfM6OAy2N59kk3/ZjTd0zMIafTXjJSQzI7JyAOr2jO8qikZ+fIGjxlzQEbJVDmYOyojmI5m+IytZLRN83TEHFjTVp14MHpKRrlRouqNo4zgjX+7XfOgMfsyMjvxadRzlDCtauIZuwJv/Ns6/7UasyejZKrjTQROyEisavRwVMdVbdvgUWN23/bNjt/b3/vZWtj1kP0gVzWcjrbbJeuIcT9fX5mZjj822v/1Y9g9HeErP8iojq/82zT/UTbjetlPLjNf48HvmucEMB2NBjGajupLlNGWf7zGuF72K1lY06bHX9R2p6NKGmWUb7COGMdbmk/v3MS+BU7KyPl0VF+SjrbGioXEXImXNDOrd+LF6fzkmkbTUeueXtZSKX1JMtouWUf8YI1EGhUfPF97g99Or2lCR/MF/tkRLmtZWtbyS4P/OJtVdLXa+PJZ/etNLDF7YzKSy1oTlrUOLGvi8Wib3/Lvsn9zCV1FIo3063WalrSHQPhNGYW1UG40cD8ewYS0WSUjPKK/J5FIclWv5F/zaVrS+tG3JyPr8UjMR6Aj8cKW3y4r69/6IckeVVlG7IplD1YP94n8IhKKJBtGJV8qXZOKYEmbh8Ke83Q0uwUdlTspWNey27QUEihps143VqtkMhlx8eLw8Yvp2+kInIP1cnjoXqzCYfd7HGm7uvSDL+fs9eXEsF5FPp0rlzmnz5Uz6qrs7eXqcC3pdJKyattIMrlqrBoNY1PP+ErAdQ9e0sSSds5kJH4HORc6wucjNSHBI1IetbTdppfLypK2SgWyoF6vQ7lcQlmvoIvOcgPxDWTA2BDgGwb5Rh08CFPVUJiOjC2mYZprw1ib6ICM142GCYBd02auTThZ6NAAd20aa/TAh8LE9kZD9AQMLNaGibtoEAbatdzMtbBQwPitaBShsl41FPJTjT8hmyKAxiRDpWmKzYrSwSIp0WSIng10REPDtPqY8uMInC2NQcowUzg8KWFMqMOQpTYpGjgDDY4t1jb6xtCNVD1Vh5C+0evwiU2qroOrw3XQ64he0TN4cbIVXV9mlpVMNpvJZDNwTbPLLIHOcplOw8W+vi4JCoXecNjxg4pG0TNVZM9H8U4npaOQhI4sKV1/kFeX93qg/XWv4uhJkdcDeztUveRo3qJkDSsNrUzkki2UVOBX4G87/+2I7QJnVCh0a7VyuXxTnH6LauGzZRQOBWZ39PN+WNj0Oig27Uv7fL6tjx6TZBKaeg/XF0Q/FR8k5fqormJUUvb5HP3sDvmeSEABk4A8UVWhn5GSKkoF0n6hZCd1E8j7wXmPlLqYgFobROSN4Vx0torkc/YIf5gNE9IXUJKOSkqjlnqgJh8NNjlyeLEo9PIFNcY9mXuqvJS03IBsL5sGP5vtpTFDFKdeOKAsOUNZwZJmaAc7VULfd8HqcIponDG7qz7Uh5mhogYZQK82dNiaw15GF7OdoNatqbLb7eGF7MnssN0CJCxlhq1HsYJowllEWFmITRSWKYBQrI6yguKBnZCCut1Juz1pF4vFauLhMhXR81HuYQET0k253EFwHOGS1bLOi12zsyy6VMokM425LOWwq6EeuumooiNzB7PwhC89okz5Qr5A6nwVnhWiKLVQ5YvdlTp/tbp2YGr3lwVxdOMyUfUDDCkrV1aH5RoWbeHgsjJsS2/YhtEr10RJpmYZi7aQZJuECnpoy+1cJpgE1Ul1uvgeuFBF4t+tzcdNEFLx5gbPrgMn477oZbHRScKsBwnOr015Z4R2nCP4HRtcFX9ZZrnF5bWTF496+f1Y88ety+mP+zFLyljEydjBdwDfgNwAcbkdwLtj36DtcNpWpG23tO3GtpWc1bajdPaRYWo5Dk0yMuGMA4rpymSpB+UDPFan0+b9LKB5LgcmpOh81BxMqzGY0bzqTOWBt4t4KEVxKEVxMEXx1W11DCJQFKkNG4Cz44QsTZSIV2QvZtjQEUlmtVHbjik6GpwUCN/CkQAAAy1JREFUd6z3pnig9W2s/SAxSTEmj1x4UMaEKwsrrnxIE7sNmyZFF7HiTuBMJpahPLFiE2cfbKOLMFGXaBKb7FEl0VDCrBSELBa398+5UNjzHug/PZo9j/sgpWCwSsQgiTIm64KgSJiJqitXRbhKljqrOoXsz1XdBTlTe5/ToOsbLM/x5VV3veroXw3uuY6gc6/73xEMTi3oMC7AOqyTPRxHu3cqtrEGm4wKVJUXrDpj7+YRk2Tx9OPHX3/Nc9GQ5nkn4r/Pys2eH8a3t4vm42AA+x1g2SQ7eFw0gUUf5Nq/fRLciiTNHTp3UEVD9o5asfEOuAdnfGt9CBvos0foU0burIhIoq2vohCiDfKiTy0iJLA9waJ/gtvbb/fACHgYje7v4cPNfqKZwJxoHiDh8FxdVBW2BG0UGIgCW8lLNCGDkS3Ua4D1gfQHVB1Qj4GsqlgTL0sTvccBXSJJgq6b2ESmHkd5QgE9oYBarVw0EAhp71YR6gj/A61QIBCN5lqz+Xz+B0AFGqzPWzNISA63HOR/g9ZFTS3LtpQvD5fa0M6wPmuRtXtinYhaQHD2/fn54fnhOCPLkDciRybUIoVETYRGsnTww3LG0hmTM6YMG6QxbsJRZiyNVT3M01jd8xJR/wFTjwQEBAqKgoICoVBIC4c9HwSlhGICNe0Rwhz6CJpVuByH939Hw4PRBGIYpKIwiRzNkfPR+6IltY0eVRS51k7Aih5hZt3eVGm5K6qHzLt7FbdNQCoI+bCIrGkJxOTIwmqWpdiFeMKe8L+NJkvtQHSvVTqas5/mvqdClIS1KoHAoVvupyK6Nx3QCezcP+qqej4VuvROHXzajg/8c6efDPt0pZTeScjlqIJyyDbnJuW8bxE41a5p4X9CQszuQ+ORFNZcs9tes7Oj6mp/RDswR9qz5G5M0+ywtv91x3G2h4+uJXyd/3EdnfEUED57T9hVTPSq4lr738kbRyc77H+Th/Xzn1Vr+JAEPvWbWDwMwzAMwzAMwzAMwzAMwzAMwzAMwzAMwzAMwzAMw/zH4J9nM58iIlYR8wkqYhkxHxcRq4jhFY35GYTEY8AwzK/B/wBM85GTvnQhhAAAAABJRU5ErkJggg==;" vertex="1" parent="2">
                    <mxGeometry x="295" y="160" width="128.28" height="190" as="geometry"/>
                </mxCell>
                <mxCell id="25" value="" style="shape=image;verticalLabelPosition=bottom;labelBackgroundColor=default;verticalAlign=top;aspect=fixed;imageAspect=0;image=data:image/svg+xml,PHN2ZyB4bWxucz0iaHR0cDovL3d3dy53My5vcmcvMjAwMC9zdmciIHhtbG5zOnhsaW5rPSJodHRwOi8vd3d3LnczLm9yZy8xOTk5L3hsaW5rIiBpZD0ic3ZnMjE2MjEiIHZlcnNpb249IjEuMSIgdmlld0JveD0iMCAwIDQ5NS45Mzc1MiA2NjEuODI4MTEiIGhlaWdodD0iNjYxLjgyODEycHQiIHdpZHRoPSI0OTUuOTM3NXB0Ij4KICAKICA8ZGVmcyBpZD0iZGVmczIxNjAyIj4KICAgIDxnIGlkPSJnMjE1OTciPgogICAgICA8c3ltYm9sIGlkPSJnbHlwaDAtMCIgb3ZlcmZsb3c9InZpc2libGUiPgogICAgICAgIDxwYXRoIGlkPSJwYXRoMjE1ODUiIGQ9IiIgc3R5bGU9InN0cm9rZTpub25lIi8+CiAgICAgIDwvc3ltYm9sPgogICAgICA8c3ltYm9sIGlkPSJnbHlwaDAtMSIgb3ZlcmZsb3c9InZpc2libGUiPgogICAgICAgIDxwYXRoIGlkPSJwYXRoMjE1ODgiIGQ9IiIgc3R5bGU9InN0cm9rZTpub25lIi8+CiAgICAgIDwvc3ltYm9sPgogICAgICA8c3ltYm9sIGlkPSJnbHlwaDEtMCIgb3ZlcmZsb3c9InZpc2libGUiPgogICAgICAgIDxwYXRoIGlkPSJwYXRoMjE1OTEiIGQ9Ik0gODIuMDc4MTI1LDAgViAtNjE2Ljg5MDYyIEggNDM2LjMxMjUgViAwIFogTSAxMjYuMTQwNjMsLTQ0LjA2MjUgSCAzOTMuMTI1IFYgLTU3Mi44MjgxMiBIIDEyNi4xNDA2MyBaIG0gMCwwIiBzdHlsZT0ic3Ryb2tlOm5vbmUiLz4KICAgICAgPC9zeW1ib2w+CiAgICAgIDxzeW1ib2wgaWQ9ImdseXBoMS0xIiBvdmVyZmxvdz0idmlzaWJsZSI+CiAgICAgICAgPHBhdGggaWQ9InBhdGgyMTU5NCIgZD0iTSA3My40Mzc1LDAgQyA2MS4zNDM3NSwwIDUzLjQxNzk2OSwtMS44NjcxODggNDkuNjcxODc1LC01LjYwOTM3NSA0NS45Mjk2ODgsLTkuMzU1NDY5IDQ0LjA2MjUsLTE3LjI4MTI1IDQ0LjA2MjUsLTI5LjM3NSB2IC02MDMuMDc4MTIgYyAwLC0xMi4wODk4NSAxLjg2NzE4OCwtMjAuMDA3ODIgNS42MDkzNzUsLTIzLjc1IDMuNzQ2MDk0LC0zLjc0NjEgMTEuNjcxODc1LC01LjYyNSAyMy43NjU2MjUsLTUuNjI1IEggNTEwLjYyNSBjIDEyLjA4OTg0LDAgMjAuMDA3ODEsMS44Nzg5IDIzLjc1LDUuNjI1IDMuNzQ2MDksMy43NDIxOCA1LjYyNSwxMS42NjAxNSA1LjYyNSwyMy43NSBWIC0yOS4zNzUgYyAwLDEyLjA5Mzc1IC0xLjg3ODkxLDIwLjAxOTUzMSAtNS42MjUsMjMuNzY1NjI1IEMgNTMwLjYzMjgxLC0xLjg2NzE4OCA1MjIuNzE0ODQsMCA1MTAuNjI1LDAgWiBtIDUuMTg3NSwtMTIuMDkzNzUgaCA0MjYuODEyNSBjIDkuNzg5MDYsMCAxNS45ODQzNywtMS4yOTY4NzUgMTguNTc4MTIsLTMuODkwNjI1IDIuNTg5ODUsLTIuNTg5ODQ0IDMuODkwNjMsLTguNzg1MTU2IDMuODkwNjMsLTE4LjU3ODEyNSB2IC01OTIuNzAzMTIgYyAwLC0xMC4zNjMyOSAtMS4zMDA3OCwtMTYuNjk1MzIgLTMuODkwNjMsLTE5IC0yLjU5Mzc1LC0yLjMwODYgLTguNzg5MDYsLTMuNDY4NzUgLTE4LjU3ODEyLC0zLjQ2ODc1IEggNzguNjI1IGMgLTEwLjM2NzE4NywwIC0xNi43MDcwMzEsMS4xNjAxNSAtMTkuMDE1NjI1LDMuNDY4NzUgLTIuMzA0Njg3LDIuMzA0NjggLTMuNDUzMTI1LDguNjM2NzEgLTMuNDUzMTI1LDE5IFYgLTM0LjU2MjUgYyAwLDkuNzkyOTY5IDEuMTQ4NDM4LDE1Ljk4ODI4MSAzLjQ1MzEyNSwxOC41NzgxMjUgMi4zMDg1OTQsMi41OTM3NSA4LjY0ODQzOCwzLjg5MDYyNSAxOS4wMTU2MjUsMy44OTA2MjUgeiBtIC05LjUsLTU1NS41NDY4NyAyMi40NTMxMjUsLTYwLjQ4NDM4IGggMTMuODI4MTI1IGwgMjIuNDY4NzUsNjAuNDg0MzggaCAtMTMuODI4MTIgbCAtNC4zMTI1LC0xMy44MjgxMyBIIDg3LjI2NTYyNSBsIC01LjE4NzUsMTMuODI4MTMgeiBtIDIxLjU5Mzc1LC0yMy4zMjgxMyBoIDE1LjU0Njg4IEwgOTguNSwtNjEzLjQzNzUgWiBtIDQuMzI4MTI1LDk1Ljg5MDYzIDIuNTc4MTI1LC0xMi45NTMxMyB2IC0zLjQ1MzEyIGggLTAuODU5Mzc1IGMgLTEuNzMwNDY5LDUuNzYxNzEgLTUuMTgzNTk0LDguNjQwNjIgLTEwLjM1OTM3NSw4LjY0MDYyIC02LjkxNzk2OSwwIC0xMC4zNzUsLTMuNzQyMTkgLTEwLjM3NSwtMTEuMjM0MzcgMCwtNS43NTc4MiAzLjE2NDA2MywtMTEuODA0NjkgOS41LC0xOC4xNDA2MyA0LjYxMzI4MSwtNC42MTMyOCA4LjkzNzUsLTEwLjM3NSAxMi45Njg3NSwtMTcuMjgxMjUgMS4xNDQ1MzEsMi44NzUgMy4wMTU2Myw1Ljc1NzgxIDUuNjA5MzgsOC42NDA2MyAyLjU4OTg0LDIuODc1IDUuMzI4MTIsNS43NTc4MSA4LjIwMzEyLDguNjQwNjIgNS43NTc4MSw1Ljc2MTcyIDguNjQwNjMsMTEuODA4NTkgOC42NDA2MywxOC4xNDA2MyAwLDcuNDkyMTggLTMuNDU3MDQsMTEuMjM0MzcgLTEwLjM1OTM4LDExLjIzNDM3IC01LjE4NzUsMCAtOC42NDg0NCwtMi44Nzg5MSAtMTAuMzc1LC04LjY0MDYyIGggLTAuODU5Mzc1IHYgMy40NTMxMiBsIDIuNTkzNzU1LDEyLjk1MzEzIHogbSAxODUuNzQ5OTk1LDI0Ny4xMDkzNyBjIDUuNzU3ODIsLTEwLjk0NTMxIDguNjQwNjMsLTI0Ljc2OTUzIDguNjQwNjMsLTQxLjQ2ODc1IHYgLTkuNSBoIC0xLjcxODc1IGMgLTAuNTg1OTQsNC42MDU0NyAtNC4xOTE0MSwxMC4yMjI2NiAtMTAuODEyNSwxNi44NDM3NSAtNi42MjUsNi42MjUgLTEzLjk3MjY2LDkuOTM3NSAtMjIuMDMxMjUsOS45Mzc1IC03LjQ5MjE5LDAgLTE0LjQwMjM0LC0zLjAxOTUzIC0yMC43MzQzOCwtOS4wNjI1IC02LjMzNTkzLC02LjA1MDc4IC05LjUsLTE0LjU1MDc4IC05LjUsLTI1LjUgMCwtMTQuMzk0NTMgMTAuMDc4MTMsLTMzLjQwNjI1IDMwLjIzNDM4LC01Ny4wMzEyNSAyMS4zMDg1OSwtMjUuMzM5ODQgMzMuNjk1MzEsLTQyLjMzMjAzIDM3LjE1NjI1LC01MC45Njg3NSAyLjMwMDc4LDQuNjA1NDcgNi42MTcxOSwxMS4yMzA0NyAxMi45NTMxMiwxOS44NzUgNi4zMzk4NSw4LjYzNjcyIDE0LjQxMDE2LDE5LjAwMzkxIDI0LjIwMzEzLDMxLjA5Mzc1IDIwLjE1MjM0LDI0Ljc3MzQ0IDMwLjIzNDM3LDQzLjc4NTE2IDMwLjIzNDM3LDU3LjAzMTI1IDAsMTAuOTQ5MjIgLTMuMTY3OTYsMTkuNDQ5MjIgLTkuNSwyNS41IC02LjMzNTkzLDYuMDQyOTcgLTEzLjI0NjA5LDkuMDYyNSAtMjAuNzM0MzcsOS4wNjI1IC04LjA2MjUsMCAtMTUuMjY5NTMsLTMuMzEyNSAtMjEuNjA5MzgsLTkuOTM3NSAtNi4zMzU5MywtNi42MjEwOSAtMTAuMDc0MjEsLTEyLjIzODI4IC0xMS4yMTg3NSwtMTYuODQzNzUgSCAyOTQuNjI1IHYgOS41IGMgMCwxNi42OTkyMiAyLjg3ODkxLDMwLjUyMzQ0IDguNjQwNjIsNDEuNDY4NzUgeiBNIDQ4NS41NjI1LC0xMTIuMzEyNSBjIC0zLjQ0OTIyLC03LjQ4ODI4IC03Ljc2OTUzLC0xMy41MzkwNiAtMTIuOTUzMTMsLTE4LjE1NjI1IC02LjMzNTkzLC01LjE3NTc4IC05LjUsLTEwLjkzNzUgLTkuNSwtMTcuMjgxMjUgMCwtNy40NzY1NiAzLjQ1MzEzLC0xMS4yMTg3NSAxMC4zNTkzOCwtMTEuMjE4NzUgNS4xODM1OSwwIDguNjQ0NTMsMi44Nzg5MSAxMC4zNzUsOC42MjUgaCAwLjg1OTM3IHYgLTMuNDUzMTIgTCA0ODIuMTA5MzcsLTE2Ni43NSBoIDYuOTIxODggbCAtMi41OTM3NSwxMi45NTMxMyB2IDMuNDUzMTIgaCAwLjg1OTM3IGMgMS43MjY1NywtNS43NDYwOSA1LjE3OTY5LC04LjYyNSAxMC4zNTkzOCwtOC42MjUgNi45MTQwNiwwIDEwLjM3NSwzLjc0MjE5IDEwLjM3NSwxMS4yMTg3NSAwLDcuNDkyMTkgLTIuODgyODEsMTMuMjUzOTEgLTguNjQwNjMsMTcuMjgxMjUgLTMuNDYwOTMsMi4zMDQ2OSAtNi4zMzk4NCw1LjE4MzU5IC04LjY0MDYyLDguNjQwNjIgLTIuMzA0NjksMy40NjA5NCAtNC4wMzUxNiw2LjYzMjgyIC01LjE4NzUsOS41MTU2MyB6IG0gLTYuOTA2MjUsNzguNjA5Mzc1IC0yMi40Njg3NSwtNjAuNDY4NzUgaCAxMy44MjgxMiBsIDQuMzI4MTMsMTMuODEyNSBoIDIyLjQ1MzEyIGwgNS4xODc1LC0xMy44MTI1IGggMTIuOTUzMTMgbCAtMjIuNDUzMTMsNjAuNDY4NzUgeiBtIDYuOTA2MjUsLTE0LjY4NzUgNy43ODEyNSwtMjIuNDUzMTI1IGggLTE1LjU0Njg4IHogbSAwLDAiIHN0eWxlPSJzdHJva2U6bm9uZSIvPgogICAgICA8L3N5bWJvbD4KICAgIDwvZz4KICAgIDxjbGlwUGF0aCBpZD0iY2xpcDEiPgogICAgICA8cGF0aCBpZD0icGF0aDIxNTk5IiBkPSJNIDAsMCBIIDY1MS45Njg3NSBWIDc5My42OTkyMiBIIDAgWiBtIDAsMCIvPgogICAgPC9jbGlwUGF0aD4KICA8L2RlZnM+CiAgPGcgdHJhbnNmb3JtPSJ0cmFuc2xhdGUoLTc3Ljg1MTM5OCwtNTkuMzYyODU0KSIgaWQ9ImcyMTYxMCIgc3R5bGU9ImZpbGw6IzAwMDAwMDtmaWxsLW9wYWNpdHk6MSI+CiAgICA8dXNlIGhlaWdodD0iMTAwJSIgd2lkdGg9IjEwMCUiIGlkPSJ1c2UyMTYwOCIgeT0iNzM1LjM5MjIxIiB4PSIzMi41MTI5MDEiIHhsaW5rOmhyZWY9IiNnbHlwaDAtMSIvPgogIDwvZz4KICA8ZyB0cmFuc2Zvcm09InRyYW5zbGF0ZSgtNzcuODUxMzk4LC01OS4zNjI4NTQpIiBpZD0iZzIxNjE0IiBzdHlsZT0iZmlsbDojMDAwMDAwO2ZpbGwtb3BhY2l0eToxIj4KICAgIDx1c2UgaGVpZ2h0PSIxMDAlIiB3aWR0aD0iMTAwJSIgaWQ9InVzZTIxNjEyIiB5PSI3MzUuMzkyMjEiIHg9IjMyNC4zOTY5MSIgeGxpbms6aHJlZj0iI2dseXBoMC0xIi8+CiAgPC9nPgogIDxnIHRyYW5zZm9ybT0idHJhbnNsYXRlKC03Ny44NTEzOTgsLTU5LjM2Mjg1NCkiIGlkPSJnMjE2MTgiIHN0eWxlPSJmaWxsOiMwMDAwMDA7ZmlsbC1vcGFjaXR5OjEiPgogICAgPHVzZSBoZWlnaHQ9IjEwMCUiIHdpZHRoPSIxMDAlIiBpZD0idXNlMjE2MTYiIHk9IjcyMS4xOTA5OCIgeD0iMzMuNzg4ODk4IiB4bGluazpocmVmPSIjZ2x5cGgxLTEiLz4KICA8L2c+Cjwvc3ZnPg==;" vertex="1" parent="2">
                    <mxGeometry x="430" y="160" width="140" height="186.67" as="geometry"/>
                </mxCell>
                <mxCell id="17" value="Card Suit" style="text;html=1;align=center;verticalAlign=middle;resizable=0;points=[];autosize=1;strokeColor=none;fillColor=none;fontSize=14;" vertex="1" parent="1">
                    <mxGeometry x="18" y="195" width="80" height="30" as="geometry"/>
                </mxCell>
            </root>
        </mxGraphModel>
    </diagram>
</mxfile>